<?xml version="1.0" encoding="UTF-8" standalone="no"?>
<svg width="302px" height="317px" viewBox="0 0 302 317" version="1.1" xmlns="http://www.w3.org/2000/svg" xmlns:xlink="http://www.w3.org/1999/xlink" xmlns:sketch="http://www.bohemiancoding.com/sketch/ns">
    <!-- Generator: Sketch 3.3.3 (12072) - http://www.bohemiancoding.com/sketch -->
    <title>Arch_edu Copy</title>
    <desc>Created with Sketch.</desc>
    <defs>
        <linearGradient x1="50%" y1="-1.20876634%" x2="50%" y2="75.158752%" id="linearGradient-1">
            <stop stop-color="#FFFFFF" stop-opacity="0.633491848" offset="0%"></stop>
            <stop stop-color="#FFFFFF" stop-opacity="0" offset="100%"></stop>
        </linearGradient>
    </defs>
    <g id="Page-1" stroke="none" stroke-width="1" fill="none" fill-rule="evenodd" sketch:type="MSPage">
        <g id="Characters" sketch:type="MSArtboardGroup" transform="translate(-139.000000, -1582.000000)">
            <g id="Arch_edu-Copy" sketch:type="MSLayerGroup" transform="translate(139.000000, 1582.000000)">
                <g id="architect-copy-2" transform="translate(86.285714, 34.581818)" sketch:type="MSShapeGroup">
                    <g id="Rectangle-18-+-Oval-38" transform="translate(37.390476, 257.922727)" fill="#676767">
                        <path d="M8.39057729,9.94397888 C10.8793066,3.84882965 11.1695966,0 11.1695966,0 L27.0847117,0 C27.0847117,0 29.3714096,18.6051758 24.9524968,21.4806618 C20.533584,24.3561479 0.205951175,23.1708542 0.205951175,23.1708542 C0.205951175,23.1708542 5.90184795,16.0391281 8.39057729,9.94397888 Z" id="Rectangle-18"></path>
                    </g>
                    <g id="Rectangle-18-+-Oval-38-Copy-2-+-Oval-38-Copy-2" transform="translate(87.364286, 270.170455) scale(-1, 1) translate(-87.364286, -270.170455) translate(72.623810, 257.922727)" fill="#676767">
                        <path d="M8.39057729,9.94397888 C10.8793066,3.84882965 11.1695966,0 11.1695966,0 L27.5555334,0 C27.5555334,0 31.235386,19.4002086 26.8164733,22.2756947 C22.3975605,25.1511808 0.205951175,23.1708542 0.205951175,23.1708542 C0.205951175,23.1708542 5.90184795,16.0391281 8.39057729,9.94397888 Z" id="Rectangle-18"></path>
                    </g>
                    <g id="Arch_hands" transform="translate(15.100000, 201.727273)" fill="#FFEDDA">
                        <path d="M21.2013546,0 L5.18673811,0 C5.18673811,0 -0.151467463,10.2389436 0.738233454,17.3704776 C1.62793437,24.5020117 10.5249425,31.6335457 14.083747,28.0677787 C17.6425515,24.5020117 13.1940463,19.6117186 14.0837473,16.0459516 C14.9734482,12.4801845 14.0837473,20.0448029 15.8631491,22.7191281 C17.6425509,25.3934534 21.2013546,23.6105699 19.4219528,20.5031603 C17.6425509,17.3957507 16.75285,13.3716263 17.6425509,8.91441753 C18.5322518,4.45720877 21.2013546,0 21.2013546,0 Z" id="Path-17"></path>
                        <path d="M107.857143,0 L91.8425264,0 C91.8425264,0 86.5043208,10.2389436 87.3940217,17.3704776 C88.2837226,24.5020117 97.1807307,31.6335457 100.739535,28.0677787 C104.29834,24.5020117 99.8498346,19.6117186 100.739536,16.0459516 C101.629236,12.4801845 100.739536,20.0448029 102.518937,22.7191281 C104.298339,25.3934534 107.857143,23.6105699 106.077741,20.5031603 C104.298339,17.3957507 103.408638,13.3716263 104.298339,8.91441753 C105.18804,4.45720877 107.857143,0 107.857143,0 Z" id="Path-17-Copy" transform="translate(97.575570, 14.508112) scale(-1, 1) translate(-97.575570, -14.508112) "></path>
                    </g>
                    <g id="Arch_cloth" transform="translate(11.504762, 116.713636)">
                        <path d="M22.7906079,97.2613636 L4.80004224,97.2613636 C4.80004224,97.2613636 -6.00005137,50.4318182 4.80004009,21.6136364 C15.6001315,-7.20454545 58.0239391,1.44090909 58.0239391,1.44090909 L58.2428571,108.788636 L28.0428571,108.788636 L25.6667984,64.1204545 L22.7906079,97.2613636 Z M93.2572746,97.2613636 L111.24784,97.2613636 C111.24784,97.2613636 122.047934,50.4318182 111.247842,21.6136364 C100.447751,-7.20454545 58.0239434,1.44090909 58.0239434,1.44090909 L58.242856,108.788636 L88.442856,108.788636 L90.3810841,64.1204545 L93.2572746,97.2613636 Z" id="Path-10" fill="#4A4A4A"></path>
                        <path d="M36.6714286,17.3265943 C36.6714286,17.3265943 48.1778121,51.8727273 58.9619048,51.8727273 C68.3095238,51.8727273 81.252381,16.5704545 81.252381,16.5704545 L36.6714286,17.3265943 Z" id="Path-12" fill="#FFFFFF"></path>
                        <path d="M58.2428571,18.7318182 L51.052381,20.1727273 L54.647619,28.8181818 L61.8380952,28.8181818 L65.4333333,20.1727273 L58.2428571,18.7318182 Z" id="Path-13" fill="#EE8822"></path>
                        <path d="M63.9952374,20.1727273 L52.0214943,20.1727273 L55.8356482,28.8181818 L60.4,28.8181818 L63.9952374,20.1727273 Z" id="Path-13-Copy" fill="#FAA24A"></path>
                        <path d="M54.647619,28.8181818 L48.1761905,42.5068182 C48.1761905,42.5068182 52.9196325,51.1615752 58.2428571,51.8727273 C63.5660818,52.5838793 69.0285714,42.5068182 69.0285714,42.5068182 L61.8380952,28.8181818 L54.647619,28.8181818 Z" id="Path-15" fill="#EE8822"></path>
                        <path d="M54.647619,28.8181818 L57.5238095,28.8181818 L58.2428571,51.8727273 C58.2428571,51.8727273 55.3666667,51.8727273 51.7714286,47.55 C48.1761905,43.2272727 48.1761905,42.5068182 48.1761905,42.5068182 L54.647619,28.8181818 Z" id="Path-16" fill="#F9A24A"></path>
                        <path d="M0.719047619,85.0136364 L25.1666667,85.0136364 L23.0095238,97.9818182 L3.5952381,97.9818182 L0.719047619,85.0136364 Z" id="Rectangle-16" fill="#FFFFFF"></path>
                        <path d="M89.8809524,85.0136364 L114.328571,85.0136364 L112.171429,97.9818182 L92.7571429,97.9818182 L89.8809524,85.0136364 Z" id="Rectangle-16-Copy" fill="#FFFFFF"></path>
                    </g>
                    <g id="Arch_head">
                        <ellipse id="Oval-35" fill="#FFECD9" cx="133.383333" cy="82.8522727" rx="7.55" ry="10.0863636"></ellipse>
                        <ellipse id="Oval-35-Copy" fill="#FFECD9" cx="7.55" cy="82.8522727" rx="7.55" ry="10.0863636"></ellipse>
                        <path d="M135.9,62.3803698 C135.9,36.7132739 113.609524,11.5883243 101.385714,6.54514253 C89.1619048,1.50196071 88.3930571,5.11451211 85.5666667,4.38377889 C80.4048118,3.04923614 75.494166,0.0610516201 70.1071429,0.0610516201 C36.1534654,0.0610516201 4.31428571,28.3602568 4.31428571,62.3803698 C4.31428571,96.4004828 135.9,96.4004828 135.9,62.3803698 Z" id="Oval-28" fill="#676767"></path>
                        <path d="M128.761217,53.1524998 C131.51361,60.2385483 133.02381,67.9465433 133.02381,76.0079545 C133.02381,110.82386 104.855058,139.047727 70.1071429,139.047727 C35.3592273,139.047727 7.19047619,110.82386 7.19047619,76.0079545 C7.19047619,71.8792264 7.58661263,67.8432019 8.34288073,63.9359562 C10.8604155,58.011759 31.2785714,41.7863636 31.2785714,41.7863636 C31.2785714,41.7863636 21.5714286,65.5613636 33.7952381,56.1954545 C46.0190476,46.8295455 76.9380952,36.7431818 76.9380952,36.7431818 L68.6690476,48.9909091 C68.6690476,48.9909091 71.5452381,56.1954545 88.4428571,44.6681818 C105.340476,33.1409091 108.935714,36.0227273 115.047619,41.7863636 C121.159524,47.55 128.709524,53.3136364 128.709524,53.3136364 L128.761217,53.1524998 Z" id="Oval-27" fill="#FFEDDA"></path>
                        <ellipse id="Oval-33" fill="#8B572A" cx="38.8285714" cy="82.8522727" rx="7.90952381" ry="7.925"></ellipse>
                        <ellipse id="Oval-33-Copy" fill="#8B572A" cx="101.385714" cy="82.8522727" rx="7.90952381" ry="7.925"></ellipse>
                        <g id="Glasses-Copy-2" transform="translate(10.785714, 58.356818)">
                            <g id="Oval-1-Copy-+-Rectangle-1-+-Oval-1" transform="translate(0.339837, 0.105316)">
                                <ellipse id="Oval-1-Copy" fill-opacity="0.2" fill="#C3C3C3" cx="23.8241215" cy="23.870737" rx="23.8241215" ry="23.870737"></ellipse>
                                <rect id="Rectangle-1" fill="url(#linearGradient-1)" transform="translate(24.267361, 24.314844) rotate(41.000000) translate(-24.267361, -24.314844) " x="16.6214801" y="1.11026684" width="15.2917617" height="46.4091538"></rect>
                                <ellipse id="Oval-1" stroke="#4A4A4A" stroke-width="3.6" cx="23.8241215" cy="23.870737" rx="23.8241215" ry="23.870737"></ellipse>
                            </g>
                            <g id="Oval-1-Copy-+-Rectangle-1-+-Oval-1-Copy" transform="translate(71.185250, 0.105316)">
                                <ellipse id="Oval-1-Copy" fill-opacity="0.2" fill="#C3C3C3" cx="23.8241215" cy="23.870737" rx="23.8241215" ry="23.870737"></ellipse>
                                <rect id="Rectangle-1" fill="url(#linearGradient-1)" transform="translate(24.267361, 24.314844) rotate(41.000000) translate(-24.267361, -24.314844) " x="16.6214801" y="1.11026684" width="15.2917617" height="46.4091538"></rect>
                                <ellipse id="Oval-1" stroke="#4A4A4A" stroke-width="3.6" cx="23.8241215" cy="23.870737" rx="23.8241215" ry="23.870737"></ellipse>
                            </g>
                            <path d="M47.361129,24.0752388 C47.361129,24.0752388 55.1540157,22.091521 59.2731897,22.091521 C63.0953895,22.091521 71.1852505,24.0752388 71.1852505,24.0752388 L71.1852505,28.3732939 C71.1852505,28.3732939 63.3890549,26.0589565 59.2731897,26.0589565 C55.447681,26.0589565 47.361129,28.3732939 47.361129,28.3732939 L47.361129,24.0752388 Z" id="Rectangle-3" fill="#4A4A4A"></path>
                        </g>
                    </g>
                    <g id="Arch_pants" transform="translate(35.952381, 211.093182)">
                        <path d="M33.2256249,0.728484038 C33.2267812,0.723146038 33.2273651,0.720454597 33.2273651,0.720454597 L0.817609791,0.720454597 C0.817609791,0.720454597 -0.339881497,7.67899117 0.238864147,22.7558204 C0.817609791,37.8326497 1.97510108,48.2704545 1.97510108,48.2704545 L29.3822931,48.2704546 C29.3822931,48.2704546 26.8611631,36.0930155 28.5974,25.0753326 C28.6393971,24.8088305 28.6820715,24.5409712 28.7253657,24.2719764 C30.1448677,24.4156166 31.6548533,24.4954546 33.2273659,24.4954546 C34.9313674,24.4954546 36.5836981,24.4017068 38.140353,24.2346151 C38.1855088,24.5161708 38.2300875,24.7964945 38.2740286,25.0753326 C40.0102655,36.0930155 37.520733,48.2704545 37.520733,48.2704545 L64.8963275,48.2704545 C64.8963275,48.2704545 66.0538188,37.8326497 66.6325644,22.7558204 C67.2113101,7.67899117 66.0538188,0.720454597 66.0538188,0.720454597 L33.8061115,0.720454597 C33.8061115,0.720454597 33.8066536,0.723101256 33.8077273,0.728350806 C33.7107434,0.723092343 33.6137424,0.720439273 33.5167387,0.720454597 C33.4196986,0.720469927 33.3226559,0.723167577 33.2256249,0.72848404 Z" id="Path-19" fill="#676767"></path>
                        <g id="Path-21-+-Path-21-Copy" transform="translate(0.719048, 41.786364)">
                            <path d="M29.0895456,0.200868919 L0,1.39516304 L1.16358182,15.1295455 L29.0895456,14.5323984 L29.0895456,0.200868919 Z" id="Path-21" fill="#848484"></path>
                            <path d="M27.3459517,0.295762773 L0,1.39516304 L1.16358182,15.1295455 L27.3459517,0.295762773 Z" id="Path-21-Copy" fill="#8C8C8C"></path>
                        </g>
                        <g id="Path-21-+-Path-21-Copy-2" transform="translate(51.411905, 49.351136) scale(-1, 1) translate(-51.411905, -49.351136) translate(36.671429, 41.786364)">
                            <path d="M29.0895456,0.200868919 L0,1.39516304 L1.16358182,15.1295455 L29.0895456,14.5323984 L29.0895456,0.200868919 Z" id="Path-21" fill="#848484"></path>
                            <path d="M27.3459517,0.295762773 L0,1.39516304 L1.16358182,15.1295455 L27.3459517,0.295762773 Z" id="Path-21-Copy" fill="#8C8C8C"></path>
                        </g>
                    </g>
                    <path d="M100.010114,281.696633 C106.886096,281.667594 110.269546,281.123511 110.269546,277.334758 C110.269546,269.698726 104.47104,264.465527 96.8169277,264.465527 C89.1628158,264.465527 83.100558,269.698727 83.100558,277.334759 C83.100558,281.182038 93.027915,281.726121 100.010114,281.696633 Z" id="Oval-38-Copy-2" fill="#676767" transform="translate(96.685052, 273.081627) scale(-1, 1) translate(-96.685052, -273.081627) "></path>
                    <path d="M44.1828079,281.83633 C51.0587899,281.807291 54.4422398,281.263208 54.4422398,277.474456 C54.4422398,269.838424 48.6437331,264.605225 40.9896212,264.605225 C33.3355092,264.605225 27.2732515,269.838424 27.2732515,277.474456 C27.2732515,281.321736 37.2006085,281.865818 44.1828079,281.83633 Z" id="Oval-38" fill="#676767"></path>
                </g>
                <path d="M113.549261,156.958649 C108.104297,160.355424 103.471266,165.434277 100.666667,172.909091 C88.7551282,204.655707 98.0200939,251.789014 98.0200939,251.789014 L120.895497,249.485529 L122.581469,216.136364 L120.895497,288.181814 L158.001458,280.428584 L190.42614,288.181822 L189.267319,219.842853 L190.426139,250.05331 L210.874758,251.649708 C210.874758,251.649708 221.233744,204.655706 209.322205,172.90909 C206.664611,165.826074 202.611841,160.894429 197.918744,157.506749 C186.829832,167.52851 172.142678,173.629545 156.033333,173.629545 C139.632369,173.629545 124.705551,167.305622 113.549261,156.958649 Z" id="Path-10-Copy-4" fill="#343B45" sketch:type="MSShapeGroup"></path>
                <g id="Arch_gown" transform="translate(89.161905, 0.000000)" sketch:type="MSShapeGroup">
                    <g id="Rectangle-52-+-Rectangle-53">
                        <path d="M23.3395529,1.88837891 C23.9170282,0.845456034 25.3577236,0 26.5454538,0 L138.773044,0 C139.966139,0 140.468954,0.83867121 139.887722,1.88837891 L117.644712,42.0593484 C117.067237,43.1022712 115.626541,43.9477273 114.438811,43.9477273 L2.21122074,43.9477273 C1.0181259,43.9477273 0.515310862,43.1090561 1.09654301,42.0593484 L23.3395529,1.88837891 Z" id="Rectangle-52" fill="#343B45"></path>
                        <path d="M110.953494,26.1541755 L110.953494,54.0340909 C110.953494,54.0340909 92.342519,46.3672843 67.7260221,46.3672843 C43.1095252,46.3672843 24.4985505,54.0340909 24.4985505,54.0340909 L24.4985505,26.1541755 C24.4985505,20.8612326 43.8521488,16.5704545 67.7260221,16.5704545 C91.5998955,16.5704545 110.953494,20.8612326 110.953494,26.1541755 Z" id="Rectangle-53" fill="#48525E"></path>
                    </g>
                    <g id="Rectangle-54-+-Oval-90" transform="translate(5.752381, 43.227273)" fill="#EE8822">
                        <rect id="Rectangle-54" x="1.43809524" y="0" width="2.87619048" height="28.8181818"></rect>
                        <ellipse id="Oval-90" cx="2.87619048" cy="6.48409091" rx="2.87619048" ry="2.88181818"></ellipse>
                    </g>
                </g>
                <g id="Group" transform="translate(0.000000, 259.363636)" stroke="#A7BFE1" sketch:type="MSShapeGroup">
                    <g id="Group-Copy" transform="translate(0.000000, 7.925000)">
                        <path d="M18.0232965,0 L102.786047,0 L85.5195607,30.2590909 L0.756810271,30.2590909 L18.0232965,0 Z" id="Rectangle-58" stroke-width="2.16" fill="#C1D1E5"></path>
                        <rect id="Rectangle-59" stroke-width="2.16" fill="#C1D1E5" x="1.07857143" y="29.1784091" width="85.2071429" height="18.3715909"></rect>
                        <path d="M85.2071429,29.1784091 L101.919734,0 L101.919734,17.9747781 L85.2071429,47.1531871 L85.2071429,29.1784091 Z" id="Rectangle-59-Copy" stroke-width="2.16" fill="#C1D1E5"></path>
                        <path d="M2.69642857,32.9607955 L85.7534313,32.9607955" id="Line" stroke-width="1.08" stroke-linecap="square"></path>
                        <path d="M2.69642857,35.1221591 L85.7534313,35.1221591" id="Line-Copy" stroke-width="1.08" stroke-linecap="square"></path>
                        <path d="M2.69642857,37.2835227 L85.7534313,37.2835227" id="Line-Copy-2" stroke-width="1.08" stroke-linecap="square"></path>
                        <path d="M2.69642857,39.4448864 L85.7534313,39.4448864" id="Line-Copy-5" stroke-width="1.08" stroke-linecap="square"></path>
                        <path d="M2.69642857,42.1465909 L85.7534313,42.1465909" id="Line-Copy-3" stroke-width="1.08" stroke-linecap="square"></path>
                        <path d="M2.69642857,44.3079545 L85.7534313,44.3079545" id="Line-Copy-4" stroke-width="1.08" stroke-linecap="square"></path>
                    </g>
                    <g id="Group-Copy-4" transform="translate(215.714286, 7.925000)">
                        <path d="M15.0194137,0 L85.6550391,0 L71.2663006,25.6743802 L0.630675226,25.6743802 L15.0194137,0 Z" id="Rectangle-58" stroke-width="2.16" fill="#C1D1E5"></path>
                        <rect id="Rectangle-59" stroke-width="2.16" fill="#C1D1E5" x="0.898809524" y="24.757438" width="71.0059524" height="15.5880165"></rect>
                        <path d="M71.0059524,24.757438 L84.9331113,0 L84.9331113,15.2513268 L71.0059524,40.0087649 L71.0059524,24.757438 Z" id="Rectangle-59-Copy" stroke-width="2.16" fill="#C1D1E5"></path>
                        <path d="M2.24702381,27.9667355 L71.4611928,27.9667355" id="Line" stroke-width="1.08" stroke-linecap="square"></path>
                        <path d="M2.24702381,29.8006198 L71.4611928,29.8006198" id="Line-Copy" stroke-width="1.08" stroke-linecap="square"></path>
                        <path d="M2.24702381,31.6345041 L71.4611928,31.6345041" id="Line-Copy-2" stroke-width="1.08" stroke-linecap="square"></path>
                        <path d="M2.24702381,33.4683884 L71.4611928,33.4683884" id="Line-Copy-5" stroke-width="1.08" stroke-linecap="square"></path>
                        <path d="M2.24702381,35.7607438 L71.4611928,35.7607438" id="Line-Copy-3" stroke-width="1.08" stroke-linecap="square"></path>
                        <path d="M2.24702381,37.5946281 L71.4611928,37.5946281" id="Line-Copy-4" stroke-width="1.08" stroke-linecap="square"></path>
                    </g>
                    <g id="Group-Copy-2" transform="translate(31.638095, 0.000000)">
                        <path d="M12.015531,0 L68.5240312,0 L57.0130405,20.1727273 L0.504540181,20.1727273 L12.015531,0 Z" id="Rectangle-58" stroke-width="2.16" fill="#C1D1E5"></path>
                        <rect id="Rectangle-59" stroke-width="2.16" fill="#C1D1E5" x="0.719047619" y="19.4522727" width="56.8047619" height="12.2477273"></rect>
                        <path d="M56.8047619,19.4522727 L67.946489,0 L67.946489,11.9831854 L56.8047619,31.4354581 L56.8047619,19.4522727 Z" id="Rectangle-59-Copy" stroke-width="2.16" fill="#C1D1E5"></path>
                        <path d="M1.79761905,21.9738636 L57.1689542,21.9738636" id="Line" stroke-width="0.72" stroke-linecap="square"></path>
                        <path d="M1.79761905,23.4147727 L57.1689542,23.4147727" id="Line-Copy" stroke-width="0.72" stroke-linecap="square"></path>
                        <path d="M1.79761905,24.8556818 L57.1689542,24.8556818" id="Line-Copy-2" stroke-width="0.72" stroke-linecap="square"></path>
                        <path d="M1.79761905,26.2965909 L57.1689542,26.2965909" id="Line-Copy-5" stroke-width="0.72" stroke-linecap="square"></path>
                        <path d="M1.79761905,28.0977273 L57.1689542,28.0977273" id="Line-Copy-3" stroke-width="0.72" stroke-linecap="square"></path>
                        <path d="M1.79761905,29.5386364 L57.1689542,29.5386364" id="Line-Copy-4" stroke-width="0.72" stroke-linecap="square"></path>
                    </g>
                    <g id="Group-Copy-3" transform="translate(195.580952, 25.936364)">
                        <path d="M12.015531,0 L68.5240312,0 L57.0130405,20.1727273 L0.504540181,20.1727273 L12.015531,0 Z" id="Rectangle-58" stroke-width="2.16" fill="#C1D1E5"></path>
                        <rect id="Rectangle-59" stroke-width="2.16" fill="#C1D1E5" x="0.719047619" y="19.4522727" width="56.8047619" height="12.2477273"></rect>
                        <path d="M56.8047619,19.4522727 L67.946489,0 L67.946489,11.9831854 L56.8047619,31.4354581 L56.8047619,19.4522727 Z" id="Rectangle-59-Copy" stroke-width="2.16" fill="#C1D1E5"></path>
                        <path d="M1.79761905,21.9738636 L57.1689542,21.9738636" id="Line" stroke-width="0.72" stroke-linecap="square"></path>
                        <path d="M1.79761905,23.4147727 L57.1689542,23.4147727" id="Line-Copy" stroke-width="0.72" stroke-linecap="square"></path>
                        <path d="M1.79761905,24.8556818 L57.1689542,24.8556818" id="Line-Copy-2" stroke-width="0.72" stroke-linecap="square"></path>
                        <path d="M1.79761905,26.2965909 L57.1689542,26.2965909" id="Line-Copy-5" stroke-width="0.72" stroke-linecap="square"></path>
                        <path d="M1.79761905,28.0977273 L57.1689542,28.0977273" id="Line-Copy-3" stroke-width="0.72" stroke-linecap="square"></path>
                        <path d="M1.79761905,29.5386364 L57.1689542,29.5386364" id="Line-Copy-4" stroke-width="0.72" stroke-linecap="square"></path>
                    </g>
                </g>
            </g>
        </g>
    </g>
</svg>