<?xml version="1.0" encoding="UTF-8" standalone="no"?>
<svg width="142px" height="282px" viewBox="0 0 142 282" version="1.1" xmlns="http://www.w3.org/2000/svg" xmlns:xlink="http://www.w3.org/1999/xlink" xmlns:sketch="http://www.bohemiancoding.com/sketch/ns">
    <!-- Generator: Sketch 3.3.3 (12072) - http://www.bohemiancoding.com/sketch -->
    <title>architect copy</title>
    <desc>Created with Sketch.</desc>
    <defs>
        <linearGradient x1="50%" y1="-1.20876634%" x2="50%" y2="75.158752%" id="linearGradient-1">
            <stop stop-color="#FFFFFF" stop-opacity="0.633491848" offset="0%"></stop>
            <stop stop-color="#FFFFFF" stop-opacity="0" offset="100%"></stop>
        </linearGradient>
    </defs>
    <g id="Page-1" stroke="none" stroke-width="1" fill="none" fill-rule="evenodd" sketch:type="MSPage">
        <g id="Characters" sketch:type="MSArtboardGroup" transform="translate(-416.000000, -506.000000)">
            <g id="architect-copy" sketch:type="MSLayerGroup" transform="translate(416.000000, 506.000000)">
                <g id="Rectangle-18-+-Oval-38" transform="translate(37.673469, 257.358937)" fill="#676767" sketch:type="MSShapeGroup">
                    <path d="M8.45408213,9.92224246 C10.9616476,3.84041654 11.2541347,0 11.2541347,0 L27.2897048,0 C27.2897048,0 29.5937097,18.564507 25.141352,21.4337075 C20.6889943,24.3029081 0.207509935,23.1202053 0.207509935,23.1202053 C0.207509935,23.1202053 5.94651662,16.0040684 8.45408213,9.92224246 Z" id="Rectangle-18"></path>
                </g>
                <g id="Rectangle-18-+-Oval-38-Copy-2-+-Oval-38-Copy-2" transform="translate(88.025510, 269.579892) scale(-1, 1) translate(-88.025510, -269.579892) translate(73.173469, 257.358937)" fill="#676767" sketch:type="MSShapeGroup">
                    <path d="M8.45408213,9.92224246 C10.9616476,3.84041654 11.2541347,0 11.2541347,0 L27.76409,0 C27.76409,0 31.4717939,19.357802 27.0194362,22.2270025 C22.5670785,25.0962031 0.207509935,23.1202053 0.207509935,23.1202053 C0.207509935,23.1202053 5.94651662,16.0040684 8.45408213,9.92224246 Z" id="Rectangle-18"></path>
                </g>
                <g id="Arch_hands" transform="translate(15.214286, 201.286320)" fill="#FFEDDA" sketch:type="MSShapeGroup">
                    <path d="M21.361819,0 L5.22599441,0 C5.22599441,0 -0.152613858,10.2165624 0.743820841,17.3325077 C1.64025554,24.448453 10.6046015,31.5643983 14.1903411,28.0064257 C17.7760808,24.448453 13.2939067,19.5688496 14.1903414,16.0108769 C15.0867761,12.4529043 14.1903414,20.0009872 15.9832108,22.6694667 C17.7760802,25.3379462 21.361819,23.5589599 19.5689496,20.4583427 C17.7760802,17.3577256 16.8796455,13.3423974 17.7760802,8.89493162 C18.6725149,4.44746581 21.361819,0 21.361819,0 Z" id="Path-17"></path>
                    <path d="M108.673469,0 L92.5376448,0 C92.5376448,0 87.1590366,10.2165624 88.0554713,17.3325077 C88.951906,24.448453 97.9162519,31.5643983 101.501992,28.0064257 C105.087731,24.448453 100.605557,19.5688496 101.501992,16.0108769 C102.398426,12.4529043 101.501992,20.0009872 103.294861,22.6694667 C105.087731,25.3379462 108.673469,23.5589599 106.8806,20.4583427 C105.087731,17.3577256 104.191296,13.3423974 105.087731,8.89493162 C105.984165,4.44746581 108.673469,0 108.673469,0 Z" id="Path-17-Copy" transform="translate(98.314079, 14.476399) scale(-1, 1) translate(-98.314079, -14.476399) "></path>
                </g>
                <g id="Arch_cloth" transform="translate(11.591837, 116.458513)" sketch:type="MSShapeGroup">
                    <path d="M22.9631007,97.0487612 L4.83637179,97.0487612 C4.83637179,97.0487612 -6.0454633,50.3215799 4.83636962,21.5663914 C15.7182025,-7.18879713 58.4630985,1.43775943 58.4630985,1.43775943 L58.6836735,108.550837 L28.255102,108.550837 L25.8610599,63.9802944 L22.9631007,97.0487612 Z M93.9631007,97.0487612 L112.08983,97.0487612 C112.08983,97.0487612 122.971665,50.3215799 112.089832,21.5663914 C101.207999,-7.18879713 58.4631029,1.43775943 58.4631029,1.43775943 L58.6836723,108.550837 L89.1122438,108.550837 L91.0651415,63.9802944 L93.9631007,97.0487612 Z" id="Path-10" fill="#4A4A4A"></path>
                    <path d="M36.9489796,17.2887203 C36.9489796,17.2887203 48.5424502,51.7593393 59.4081633,51.7593393 C68.8265306,51.7593393 81.8673469,16.5342334 81.8673469,16.5342334 L36.9489796,17.2887203 Z" id="Path-12" fill="#FFFFFF"></path>
                    <path d="M58.6836735,18.6908725 L51.4387755,20.128632 L55.0612245,28.7551885 L62.3061224,28.7551885 L65.9285714,20.128632 L58.6836735,18.6908725 Z" id="Path-13" fill="#EE8822"></path>
                    <path d="M64.4795911,20.128632 L52.4152237,20.128632 L56.2582453,28.7551885 L60.8571429,28.7551885 L64.4795911,20.128632 Z" id="Path-13-Copy" fill="#FAA24A"></path>
                    <path d="M55.0612245,28.7551885 L48.5408163,42.4139031 C48.5408163,42.4139031 53.3201595,51.0497418 58.6836735,51.7593393 C64.0471874,52.4689369 69.5510204,42.4139031 69.5510204,42.4139031 L62.3061224,28.7551885 L55.0612245,28.7551885 Z" id="Path-15" fill="#EE8822"></path>
                    <path d="M55.0612245,28.7551885 L57.9591837,28.7551885 L58.6836735,51.7593393 C58.6836735,51.7593393 55.7857143,51.7593393 52.1632653,47.4460611 C48.5408163,43.1327828 48.5408163,42.4139031 48.5408163,42.4139031 L55.0612245,28.7551885 Z" id="Path-16" fill="#F9A24A"></path>
                    <path d="M0.724489796,84.8278061 L25.3571429,84.8278061 L23.1836735,97.767641 L3.62244898,97.767641 L0.724489796,84.8278061 Z" id="Rectangle-16" fill="#FFFFFF"></path>
                    <path d="M90.5612245,84.8278061 L115.193878,84.8278061 L113.020408,97.767641 L93.4591837,97.767641 L90.5612245,84.8278061 Z" id="Rectangle-16-Copy" fill="#FFFFFF"></path>
                </g>
                <g id="Arch_head" sketch:type="MSShapeGroup">
                    <ellipse id="Oval-35" fill="#FFECD9" cx="134.392857" cy="82.671167" rx="7.60714286" ry="10.064316"></ellipse>
                    <ellipse id="Oval-35-Copy" fill="#FFECD9" cx="7.60714286" cy="82.671167" rx="7.60714286" ry="10.064316"></ellipse>
                    <path d="M136.928571,62.2440133 C136.928571,36.6330229 114.469388,11.5629936 102.153061,6.53083558 C89.8367347,1.49867759 89.0620679,5.10333236 86.2142857,4.37419645 C81.0133628,3.04257086 76.0655504,0.0609181681 70.6377551,0.0609181681 C36.4270962,0.0609181681 4.34693878,28.2982645 4.34693878,62.2440133 C4.34693878,96.1897622 136.928571,96.1897622 136.928571,62.2440133 Z" id="Oval-28" fill="#676767"></path>
                    <path d="M129.735757,53.0363144 C132.508983,60.1068736 134.030612,67.7980198 134.030612,75.8418097 C134.030612,110.581611 105.648663,138.743785 70.6377551,138.743785 C35.6268469,138.743785 7.24489796,110.581611 7.24489796,75.8418097 C7.24489796,71.7221065 7.64403259,67.6949043 8.40602458,63.7961994 C10.9426135,57.8849518 31.5153061,41.6950233 31.5153061,41.6950233 C31.5153061,41.6950233 21.7346939,65.4180539 34.0510204,56.0726176 C46.3673469,46.7271813 77.5204082,36.6628654 77.5204082,36.6628654 L69.1887755,48.8838205 C69.1887755,48.8838205 72.0867347,56.0726176 89.1122449,44.5705422 C106.137755,33.0684668 109.760204,35.9439856 115.918367,41.6950233 C122.076531,47.4460611 129.683673,53.1970988 129.683673,53.1970988 L129.735757,53.0363144 Z" id="Oval-27" fill="#FFEDDA"></path>
                    <ellipse id="Oval-33" fill="#8B572A" cx="39.122449" cy="82.671167" rx="7.96938776" ry="7.90767684"></ellipse>
                    <ellipse id="Oval-33-Copy" fill="#8B572A" cx="102.153061" cy="82.671167" rx="7.96938776" ry="7.90767684"></ellipse>
                    <g id="Glasses-Copy-2" transform="translate(10.867347, 58.229257)">
                        <g id="Oval-1-Copy-+-Rectangle-1-+-Oval-1" transform="translate(0.342409, 0.105086)">
                            <ellipse id="Oval-1-Copy" fill-opacity="0.2" fill="#C3C3C3" cx="24.0044365" cy="23.8185583" rx="24.0044365" ry="23.8185583"></ellipse>
                            <rect id="Rectangle-1" fill="url(#linearGradient-1)" transform="translate(24.451031, 24.261694) rotate(41.000000) translate(-24.451031, -24.261694) " x="16.7472813" y="1.10783992" width="15.4074988" height="46.3077086"></rect>
                            <ellipse id="Oval-1" stroke="#4A4A4A" stroke-width="3.6" cx="24.0044365" cy="23.8185583" rx="24.0044365" ry="23.8185583"></ellipse>
                        </g>
                        <g id="Oval-1-Copy-+-Rectangle-1-+-Oval-1-Copy" transform="translate(71.724022, 0.105086)">
                            <ellipse id="Oval-1-Copy" fill-opacity="0.2" fill="#C3C3C3" cx="24.0044365" cy="23.8185583" rx="24.0044365" ry="23.8185583"></ellipse>
                            <rect id="Rectangle-1" fill="url(#linearGradient-1)" transform="translate(24.451031, 24.261694) rotate(41.000000) translate(-24.451031, -24.261694) " x="16.7472813" y="1.10783992" width="15.4074988" height="46.3077086"></rect>
                            <ellipse id="Oval-1" stroke="#4A4A4A" stroke-width="3.6" cx="24.0044365" cy="23.8185583" rx="24.0044365" ry="23.8185583"></ellipse>
                        </g>
                        <path d="M47.719586,24.022613 C47.719586,24.022613 55.5714538,22.0432314 59.7218042,22.0432314 C63.5729326,22.0432314 71.7240225,24.022613 71.7240225,24.022613 L71.7240225,28.3112731 C71.7240225,28.3112731 63.8688207,26.0019946 59.7218042,26.0019946 C55.8673418,26.0019946 47.719586,28.3112731 47.719586,28.3112731 L47.719586,24.022613 Z" id="Rectangle-3" fill="#4A4A4A"></path>
                    </g>
                </g>
                <g id="Arch_pants" transform="translate(36.224490, 210.631756)" sketch:type="MSShapeGroup">
                    <path d="M0.823797945,0.718879764 L33.4788495,0.718879764 C33.4788495,0.718879764 30.5632198,14.0269213 28.813842,25.0205208 C27.0644642,36.0141203 29.6046756,48.1649408 29.6046756,48.1649408 L1.99004981,48.1649408 C1.99004981,48.1649408 0.823797945,37.7499518 0.240672012,22.7060788 C-0.34245392,7.66220576 0.823797945,0.718879764 0.823797945,0.718879764 Z M66.5537531,0.718879764 L34.0619761,0.718879764 C34.0619761,0.718879764 36.8143312,14.0269213 38.563709,25.0205208 C40.3130868,36.0141203 37.8047121,48.1649407 37.8047121,48.1649407 L65.3875012,48.1649408 C65.3875012,48.1649408 66.5537531,37.7499518 67.136879,22.7060788 C67.7200049,7.66220576 66.5537531,0.718879764 66.5537531,0.718879764 Z" id="Path-19" fill="#676767"></path>
                    <g id="Path-21-+-Path-21-Copy" transform="translate(0.724490, 41.695023)">
                        <path d="M29.3097124,0.200429842 L0,1.39211337 L1.1723885,15.096474 L29.3097124,14.5006322 L29.3097124,0.200429842 Z" id="Path-21" fill="#848484"></path>
                        <path d="M27.552922,0.295116269 L0,1.39211337 L1.1723885,15.096474 L27.552922,0.295116269 Z" id="Path-21-Copy" fill="#8C8C8C"></path>
                    </g>
                    <g id="Path-21-+-Path-21-Copy-2" transform="translate(51.801020, 49.243260) scale(-1, 1) translate(-51.801020, -49.243260) translate(36.948980, 41.695023)">
                        <path d="M29.3097124,0.200429842 L0,1.39211337 L1.1723885,15.096474 L29.3097124,14.5006322 L29.3097124,0.200429842 Z" id="Path-21" fill="#848484"></path>
                        <path d="M27.552922,0.295116269 L0,1.39211337 L1.1723885,15.096474 L27.552922,0.295116269 Z" id="Path-21-Copy" fill="#8C8C8C"></path>
                    </g>
                    <path d="M18.399571,0.718879764 L48.9444019,0.718879764 C48.9444019,0.718879764 49.3210912,24.3330507 33.6887753,24.3330507 C18.0564594,24.3330507 18.399571,0.718879764 18.399571,0.718879764 Z" id="Path-41" fill="#676767"></path>
                </g>
                <path d="M100.76705,281.080876 C107.695073,281.0519 111.104131,280.509006 111.104131,276.728536 C111.104131,269.109195 105.261738,263.887435 97.5496953,263.887435 C89.8376526,263.887435 83.7295121,269.109196 83.7295121,276.728536 C83.7295121,280.567406 93.7320051,281.110299 100.76705,281.080876 Z" id="Oval-38-Copy-2" fill="#676767" sketch:type="MSShapeGroup" transform="translate(97.416822, 272.484701) scale(-1, 1) translate(-97.416822, -272.484701) "></path>
                <path d="M44.5172094,281.220268 C51.445233,281.191292 54.8542908,280.648399 54.8542908,276.867928 C54.8542908,269.248587 49.0118976,264.026827 41.2998548,264.026827 C33.5878121,264.026827 27.4796716,269.248588 27.4796716,276.867928 C27.4796716,280.706798 37.4821646,281.249691 44.5172094,281.220268 Z" id="Oval-38" fill="#676767" sketch:type="MSShapeGroup"></path>
            </g>
        </g>
    </g>
</svg>