<?xml version="1.0" encoding="UTF-8" standalone="no"?>
<svg width="224px" height="273px" viewBox="0 0 224 273" version="1.1" xmlns="http://www.w3.org/2000/svg" xmlns:xlink="http://www.w3.org/1999/xlink" xmlns:sketch="http://www.bohemiancoding.com/sketch/ns">
    <!-- Generator: Sketch 3.3.3 (12072) - http://www.bohemiancoding.com/sketch -->
    <title>arch_face</title>
    <desc>Created with Sketch.</desc>
    <defs>
        <linearGradient x1="50%" y1="-1.20876634%" x2="50%" y2="75.158752%" id="linearGradient-1">
            <stop stop-color="#FFFFFF" stop-opacity="0.633491848" offset="0%"></stop>
            <stop stop-color="#FFFFFF" stop-opacity="0" offset="100%"></stop>
        </linearGradient>
    </defs>
    <g id="Page-1" stroke="none" stroke-width="1" fill="none" fill-rule="evenodd" sketch:type="MSPage">
        <g id="Architect" sketch:type="MSArtboardGroup" transform="translate(-143.000000, -157.000000)">
            <g id="arch_face" sketch:type="MSLayerGroup" transform="translate(143.000000, 157.000000)">
                <g id="face" transform="translate(0.000000, 46.000000)" sketch:type="MSShapeGroup">
                    <path d="M15,130 C21.627417,130 27,120.004468 27,106.166667 C27,92.3288654 21.627417,86 15,86 C8.372583,86 0,92.3288654 0,106.166667 C0,120.004468 8.372583,130 15,130 Z" id="Oval-5" fill="#FCE8C5"></path>
                    <path d="M209,130 C202.372583,130 197,120.004468 197,106.166667 C197,92.3288654 202.372583,86 209,86 C215.627417,86 224,92.3288654 224,106.166667 C224,120.004468 215.627417,130 209,130 Z" id="Oval-5-Copy" fill="#FCE8C5"></path>
                    <path d="M69.9310507,194.480349 C93.0901814,202.554032 123.382638,202.419655 147.744537,195.709967 C183,186.000002 207.931054,153.173413 207.931054,134.480349 C207.931054,122.609606 212.385184,64.8568754 207.931054,54.480349 C193.734682,21.4078886 146.368747,0.332949058 106.011537,0.332949058 C66.5845902,0.332949058 32.7089344,22.6153571 17.931049,54.4803486 C12.836392,65.4657633 15.9310545,121.737484 15.9310545,134.480349 C15.9310545,151.696705 37,183.000002 69.9310507,194.480349 Z" id="Oval-7" fill="#FFF1DB"></path>
                </g>
                <g id="Glasses" transform="translate(28.000000, 112.000000)" sketch:type="MSShapeGroup">
                    <g id="Oval-1-Copy-+-Rectangle-1-+-Oval-1" transform="translate(0.472620, 0.146180)">
                        <ellipse id="Oval-1-Copy" fill-opacity="0.2" fill="#C3C3C3" cx="33.1328842" cy="33.1328842" rx="33.1328842" ry="33.1328842"></ellipse>
                        <rect id="Rectangle-1" fill="url(#linearGradient-1)" transform="translate(33.749310, 33.749310) rotate(41.000000) translate(-33.749310, -33.749310) " x="23.1159657" y="1.54106438" width="21.2666884" height="64.4164911"></rect>
                        <ellipse id="Oval-1" stroke="#4A4A4A" stroke-width="5" cx="33.1328842" cy="33.1328842" rx="33.1328842" ry="33.1328842"></ellipse>
                    </g>
                    <g id="Oval-1-Copy-+-Rectangle-1-+-Oval-1-Copy" transform="translate(98.999355, 0.146180)">
                        <ellipse id="Oval-1-Copy" fill-opacity="0.2" fill="#C3C3C3" cx="33.1328842" cy="33.1328842" rx="33.1328842" ry="33.1328842"></ellipse>
                        <rect id="Rectangle-1" fill="url(#linearGradient-1)" transform="translate(33.749310, 33.749310) rotate(41.000000) translate(-33.749310, -33.749310) " x="23.1159657" y="1.54106438" width="21.2666884" height="64.4164911"></rect>
                        <ellipse id="Oval-1" stroke="#4A4A4A" stroke-width="5" cx="33.1328842" cy="33.1328842" rx="33.1328842" ry="33.1328842"></ellipse>
                    </g>
                    <path d="M65.8664708,33.4167352 C65.8664708,33.4167352 76.7042602,30.6633099 82.4329128,30.6633099 C87.7485549,30.6633099 98.9993549,33.4167352 98.9993549,33.4167352 L98.9993549,39.38249 C98.9993549,39.38249 88.1569637,36.1701605 82.4329128,36.1701605 C77.112669,36.1701605 65.8664708,39.38249 65.8664708,39.38249 L65.8664708,33.4167352 Z" id="Rectangle-3" fill="#4A4A4A"></path>
                </g>
                <path d="M126.000002,75.0000002 C120.000002,80.0000002 105.000002,93.2790606 95.0000015,96.2790606 C85.0000015,99.2790606 53.0000015,100 53.0000015,100 C53.0000015,100 73.9162369,85.2790639 75.9162369,80.2790639 C77.9162369,75.2790639 47.9999996,100 34.9999996,100 C21.9999996,100 23.0000004,100.000004 18.0000004,108.000004 C13.0000004,116.000004 6.99999852,65.0000002 22.9999996,40.0000002 C39.0000007,15.0000002 74.9999968,2.31856689e-07 110.999998,2.31856689e-07 C147,2.31856689e-07 165.999998,21.0000002 165.999998,21.0000002 C165.999998,21.0000002 212.916235,32.2790639 217.916237,56.2790639 C222.916238,80.2790639 214.999994,96.2790639 214.999994,96.2790639 L208.999994,115.000004 C208.999994,115.000004 195.999998,101.279061 165.999998,88.0000002 C135.999998,74.7209399 132.000002,70.0000002 126.000002,75.0000002 Z" id="Path-1" fill="#4A4A4A" sketch:type="MSShapeGroup"></path>
                <g id="Rectangle-5-+-Triangle-1-+-Triangle-1-Copy" transform="translate(85.000000, 242.000000)" stroke="#FFFFFF" stroke-width="2" sketch:type="MSShapeGroup">
                    <path d="M40.0725117,1.09817201 C48.8398728,1.09817201 54.252575,16.9328382 54.252575,16.9328382 C56.1053019,21.1770991 53.854189,24.6177524 49.2072282,24.6177524 L30.9377952,24.6177524 C26.2986001,24.6177524 23.9614603,21.1347023 25.9003952,16.9165621 C25.9003952,16.9165621 31.3051505,1.09817201 40.0725117,1.09817201 Z" id="Triangle-1" fill="#EE8822" transform="translate(40.072924, 14.831458) rotate(-90.000000) translate(-40.072924, -14.831458) "></path>
                    <path d="M9.92666381,1.09817201 C18.6940249,1.09817201 24.1067271,16.9328382 24.1067271,16.9328382 C25.9594541,21.1770991 23.7083412,24.6177524 19.0613803,24.6177524 L0.79194732,24.6177524 C-3.84724774,24.6177524 -6.18438752,21.1347023 -4.24545265,16.9165621 C-4.24545265,16.9165621 1.1593027,1.09817201 9.92666381,1.09817201 Z" id="Triangle-1-Copy" fill="#EE8822" transform="translate(9.927076, 14.831458) scale(-1, 1) rotate(-90.000000) translate(-9.927076, -14.831458) "></path>
                    <rect id="Rectangle-5" fill="#D16F0D" x="15.2777778" y="6.69230769" width="18.75" height="16.6153846" rx="4.9"></rect>
                </g>
            </g>
        </g>
    </g>
</svg>