<?xml version="1.0" encoding="UTF-8" standalone="no"?>
<svg width="302px" height="317px" viewBox="0 0 302 317" version="1.1" xmlns="http://www.w3.org/2000/svg" xmlns:xlink="http://www.w3.org/1999/xlink" xmlns:sketch="http://www.bohemiancoding.com/sketch/ns">
    <!-- Generator: Sketch 3.3.3 (12072) - http://www.bohemiancoding.com/sketch -->
    <title>Architect_gown + Group Copy 6</title>
    <desc>Created with Sketch.</desc>
    <defs></defs>
    <g id="Page-1" stroke="none" stroke-width="1" fill="none" fill-rule="evenodd" sketch:type="MSPage">
        <g id="Characters" sketch:type="MSArtboardGroup" transform="translate(-640.000000, -1560.000000)">
            <g id="Architect_gown-+-Group-Copy-6" sketch:type="MSLayerGroup" transform="translate(640.000000, 1560.000000)">
                <g id="Architect_gown" transform="translate(94.914286, 0.000000)" sketch:type="MSShapeGroup">
                    <path d="M24.3873565,157.6791 C18.942392,161.075875 14.3093613,166.154728 11.5047621,173.629542 C-0.406776607,205.376158 8.85818917,252.509464 8.85818917,252.509464 L31.7335926,250.20598 L33.4195638,216.856814 L31.7335924,288.902265 L68.8395536,281.149035 L101.264235,288.902273 L100.105415,220.563304 L101.264234,250.773761 L121.712853,252.370158 C121.712853,252.370158 132.071839,205.376157 120.1603,173.629541 C117.502706,166.546525 113.449936,161.61488 108.756839,158.227199 C97.6679273,168.248961 82.9807731,174.349996 66.8714286,174.349996 C50.4704641,174.349996 35.5436466,168.026073 24.3873565,157.6791 Z" id="Path-10-Copy-5" fill="#343B45"></path>
                    <g id="Arch_gown-Copy" transform="translate(0.000000, 0.720451)">
                        <g id="Rectangle-52-+-Rectangle-53">
                            <path d="M23.3395529,1.88837891 C23.9170282,0.845456034 25.3577236,0 26.5454538,0 L138.773044,0 C139.966139,0 140.468954,0.83867121 139.887722,1.88837891 L117.644712,42.0593484 C117.067237,43.1022712 115.626541,43.9477273 114.438811,43.9477273 L2.21122074,43.9477273 C1.0181259,43.9477273 0.515310862,43.1090561 1.09654301,42.0593484 L23.3395529,1.88837891 Z" id="Rectangle-52" fill="#343B45"></path>
                            <path d="M110.953494,26.1541755 L110.953494,54.0340909 C110.953494,54.0340909 92.342519,46.3672843 67.7260221,46.3672843 C43.1095252,46.3672843 24.4985505,54.0340909 24.4985505,54.0340909 L24.4985505,26.1541755 C24.4985505,20.8612326 43.8521488,16.5704545 67.7260221,16.5704545 C91.5998955,16.5704545 110.953494,20.8612326 110.953494,26.1541755 Z" id="Rectangle-53" fill="#48525E"></path>
                        </g>
                        <g id="Rectangle-54-+-Oval-90" transform="translate(5.752381, 43.227273)" fill="#EE8822">
                            <rect id="Rectangle-54" x="1.43809524" y="0" width="2.87619048" height="28.8181818"></rect>
                            <ellipse id="Oval-90" cx="2.87619048" cy="6.48409091" rx="2.87619048" ry="2.88181818"></ellipse>
                        </g>
                    </g>
                </g>
                <g id="Group-Copy-5" transform="translate(0.000000, 259.363636)" stroke="#A7BFE1" sketch:type="MSShapeGroup">
                    <g id="Group-Copy" transform="translate(0.000000, 7.925000)">
                        <path d="M18.0232965,0 L102.786047,0 L85.5195607,30.2590909 L0.756810271,30.2590909 L18.0232965,0 Z" id="Rectangle-58" stroke-width="2.16" fill="#C1D1E5"></path>
                        <rect id="Rectangle-59" stroke-width="2.16" fill="#C1D1E5" x="1.07857143" y="29.1784091" width="85.2071429" height="18.3715909"></rect>
                        <path d="M85.2071429,29.1784091 L101.919734,0 L101.919734,17.9747781 L85.2071429,47.1531871 L85.2071429,29.1784091 Z" id="Rectangle-59-Copy" stroke-width="2.16" fill="#C1D1E5"></path>
                        <path d="M2.69642857,32.9607955 L85.7534313,32.9607955" id="Line" stroke-width="1.08" stroke-linecap="square"></path>
                        <path d="M2.69642857,35.1221591 L85.7534313,35.1221591" id="Line-Copy" stroke-width="1.08" stroke-linecap="square"></path>
                        <path d="M2.69642857,37.2835227 L85.7534313,37.2835227" id="Line-Copy-2" stroke-width="1.08" stroke-linecap="square"></path>
                        <path d="M2.69642857,39.4448864 L85.7534313,39.4448864" id="Line-Copy-5" stroke-width="1.08" stroke-linecap="square"></path>
                        <path d="M2.69642857,42.1465909 L85.7534313,42.1465909" id="Line-Copy-3" stroke-width="1.08" stroke-linecap="square"></path>
                        <path d="M2.69642857,44.3079545 L85.7534313,44.3079545" id="Line-Copy-4" stroke-width="1.08" stroke-linecap="square"></path>
                    </g>
                    <g id="Group-Copy-4" transform="translate(215.714286, 7.925000)">
                        <path d="M15.0194137,0 L85.6550391,0 L71.2663006,25.6743802 L0.630675226,25.6743802 L15.0194137,0 Z" id="Rectangle-58" stroke-width="2.16" fill="#C1D1E5"></path>
                        <rect id="Rectangle-59" stroke-width="2.16" fill="#C1D1E5" x="0.898809524" y="24.757438" width="71.0059524" height="15.5880165"></rect>
                        <path d="M71.0059524,24.757438 L84.9331113,0 L84.9331113,15.2513268 L71.0059524,40.0087649 L71.0059524,24.757438 Z" id="Rectangle-59-Copy" stroke-width="2.16" fill="#C1D1E5"></path>
                        <path d="M2.24702381,27.9667355 L71.4611928,27.9667355" id="Line" stroke-width="1.08" stroke-linecap="square"></path>
                        <path d="M2.24702381,29.8006198 L71.4611928,29.8006198" id="Line-Copy" stroke-width="1.08" stroke-linecap="square"></path>
                        <path d="M2.24702381,31.6345041 L71.4611928,31.6345041" id="Line-Copy-2" stroke-width="1.08" stroke-linecap="square"></path>
                        <path d="M2.24702381,33.4683884 L71.4611928,33.4683884" id="Line-Copy-5" stroke-width="1.08" stroke-linecap="square"></path>
                        <path d="M2.24702381,35.7607438 L71.4611928,35.7607438" id="Line-Copy-3" stroke-width="1.08" stroke-linecap="square"></path>
                        <path d="M2.24702381,37.5946281 L71.4611928,37.5946281" id="Line-Copy-4" stroke-width="1.08" stroke-linecap="square"></path>
                    </g>
                    <g id="Group-Copy-2" transform="translate(31.638095, 0.000000)">
                        <path d="M12.015531,0 L68.5240312,0 L57.0130405,20.1727273 L0.504540181,20.1727273 L12.015531,0 Z" id="Rectangle-58" stroke-width="2.16" fill="#C1D1E5"></path>
                        <rect id="Rectangle-59" stroke-width="2.16" fill="#C1D1E5" x="0.719047619" y="19.4522727" width="56.8047619" height="12.2477273"></rect>
                        <path d="M56.8047619,19.4522727 L67.946489,0 L67.946489,11.9831854 L56.8047619,31.4354581 L56.8047619,19.4522727 Z" id="Rectangle-59-Copy" stroke-width="2.16" fill="#C1D1E5"></path>
                        <path d="M1.79761905,21.9738636 L57.1689542,21.9738636" id="Line" stroke-width="0.72" stroke-linecap="square"></path>
                        <path d="M1.79761905,23.4147727 L57.1689542,23.4147727" id="Line-Copy" stroke-width="0.72" stroke-linecap="square"></path>
                        <path d="M1.79761905,24.8556818 L57.1689542,24.8556818" id="Line-Copy-2" stroke-width="0.72" stroke-linecap="square"></path>
                        <path d="M1.79761905,26.2965909 L57.1689542,26.2965909" id="Line-Copy-5" stroke-width="0.72" stroke-linecap="square"></path>
                        <path d="M1.79761905,28.0977273 L57.1689542,28.0977273" id="Line-Copy-3" stroke-width="0.72" stroke-linecap="square"></path>
                        <path d="M1.79761905,29.5386364 L57.1689542,29.5386364" id="Line-Copy-4" stroke-width="0.72" stroke-linecap="square"></path>
                    </g>
                    <g id="Group-Copy-3" transform="translate(195.580952, 25.936364)">
                        <path d="M12.015531,0 L68.5240312,0 L57.0130405,20.1727273 L0.504540181,20.1727273 L12.015531,0 Z" id="Rectangle-58" stroke-width="2.16" fill="#C1D1E5"></path>
                        <rect id="Rectangle-59" stroke-width="2.16" fill="#C1D1E5" x="0.719047619" y="19.4522727" width="56.8047619" height="12.2477273"></rect>
                        <path d="M56.8047619,19.4522727 L67.946489,0 L67.946489,11.9831854 L56.8047619,31.4354581 L56.8047619,19.4522727 Z" id="Rectangle-59-Copy" stroke-width="2.16" fill="#C1D1E5"></path>
                        <path d="M1.79761905,21.9738636 L57.1689542,21.9738636" id="Line" stroke-width="0.72" stroke-linecap="square"></path>
                        <path d="M1.79761905,23.4147727 L57.1689542,23.4147727" id="Line-Copy" stroke-width="0.72" stroke-linecap="square"></path>
                        <path d="M1.79761905,24.8556818 L57.1689542,24.8556818" id="Line-Copy-2" stroke-width="0.72" stroke-linecap="square"></path>
                        <path d="M1.79761905,26.2965909 L57.1689542,26.2965909" id="Line-Copy-5" stroke-width="0.72" stroke-linecap="square"></path>
                        <path d="M1.79761905,28.0977273 L57.1689542,28.0977273" id="Line-Copy-3" stroke-width="0.72" stroke-linecap="square"></path>
                        <path d="M1.79761905,29.5386364 L57.1689542,29.5386364" id="Line-Copy-4" stroke-width="0.72" stroke-linecap="square"></path>
                    </g>
                </g>
            </g>
        </g>
    </g>
</svg>