<?xml version="1.0" encoding="UTF-8" standalone="no"?>
<svg width="937px" height="432px" viewBox="0 0 937 432" version="1.1" xmlns="http://www.w3.org/2000/svg" xmlns:xlink="http://www.w3.org/1999/xlink" xmlns:sketch="http://www.bohemiancoding.com/sketch/ns">
    <!-- Generator: Sketch 3.3.3 (12072) - http://www.bohemiancoding.com/sketch -->
    <title>House group</title>
    <desc>Created with Sketch.</desc>
    <defs></defs>
    <g id="Page-1" stroke="none" stroke-width="1" fill="none" fill-rule="evenodd" sketch:type="MSPage">
        <g id="Enviroment" sketch:type="MSArtboardGroup" transform="translate(-306.000000, -704.000000)">
            <g id="House-group" sketch:type="MSLayerGroup" transform="translate(306.000000, 704.000000)">
                <ellipse id="Oval-155" fill="#BCD6A2" sketch:type="MSShapeGroup" cx="468.5" cy="352.8" rx="468.5" ry="79.2"></ellipse>
                <g id="House-Copy-2" transform="translate(113.794005, 43.200000)" sketch:type="MSShapeGroup">
                    <rect id="Rectangle-193" stroke="#A7BFE1" stroke-width="2.0736" fill="#BFCFE4" x="6.93233093" y="138.110429" width="130.327821" height="186.44908"></rect>
                    <path d="M135.165559,124.299387 L228.766921,86.331157 L228.766921,287.041801 L135.165559,325.010031 L135.165559,124.299387 Z" id="Rectangle-131-Copy-4" stroke="#A7BFE1" stroke-width="2.7648" fill="#86909E"></path>
                    <g id="Roof">
                        <path d="M67.0310366,47.8895199 L177.892142,0.481452539 L240.14163,94.6056442 L129.280525,142.013712 L67.0310366,47.8895199 Z" id="Rectangle-131-Copy-5" stroke="#A7BFE1" stroke-width="2.7648" fill="#86909E"></path>
                        <polygon id="Triangle-3" fill="#A7BFE1" points="67.1921591 46.7619795 130.327821 141.56319 0 141.56319 "></polygon>
                        <polygon id="Triangle-3-Copy" fill="#86909E" points="66.782194 55.9347239 117.156393 131.89546 13.1714288 131.89546 "></polygon>
                    </g>
                    <g id="windows" transform="translate(20.796993, 151.921472)" stroke="#979797">
                        <rect id="Rectangle-196" stroke-width="2.0736" fill="#86909E" x="0" y="0" width="42.9804517" height="55.2441718"></rect>
                        <rect id="Rectangle-196-Copy" stroke-width="2.0736" fill="#86909E" x="0" y="0" width="42.9804517" height="55.2441718"></rect>
                        <rect id="Rectangle-196-Copy-2" stroke-width="2.0736" fill="#86909E" x="55.4586474" y="0" width="42.9804517" height="55.2441718"></rect>
                        <path d="M1.03984964,28.6579141 L41.301118,28.6579141" id="Line" stroke-width="0.6912" stroke-linecap="square"></path>
                        <path d="M56.4984971,28.6579141 L96.7597654,28.6579141" id="Line-Copy-6" stroke-width="0.6912" stroke-linecap="square"></path>
                    </g>
                    <g id="door-copy" transform="translate(31.888722, 216.142822)">
                        <rect id="Rectangle-153-Copy" fill="#979797" x="0.280405164" y="0.138890714" width="34.1278146" height="61.1119143"></rect>
                        <rect id="Rectangle-153" fill="#AFBDD0" x="2.50010042" y="2.916705" width="29.688424" height="58.3341"></rect>
                        <ellipse id="Oval-147" fill="#9B9B9B" cx="28.3040578" cy="33.4726622" rx="2.21969526" ry="2.22225143"></ellipse>
                    </g>
                    <path d="M32.8547805,276.220859 L66.1299689,276.220859 L36.5416432,330.688834 L3.26645476,330.688834 L32.8547805,276.220859 Z" id="Rectangle-201" fill="#86909E"></path>
                    <path d="M66.2775518,276.64571 L66.2775518,337.343349 L32.5277965,337.343348 L66.2775518,276.64571 Z" id="Path-233" fill="#B2B1B2"></path>
                    <rect id="Rectangle-202" fill="#979797" x="3.0457575" y="330.774479" width="33.2751884" height="6.56887001"></rect>
                    <rect id="Rectangle-203" fill="#AEBCD0" x="74.1759409" y="252.742086" width="56.1518805" height="71.8174233"></rect>
                    <path d="M32.9285719,282.090552 L59.7146539,282.090552" id="Line" stroke="#979797" stroke-width="0.6912" stroke-linecap="square"></path>
                    <path d="M29.4624064,288.996074 L56.2484884,288.996074" id="Line-Copy-7" stroke="#979797" stroke-width="0.6912" stroke-linecap="square"></path>
                    <path d="M25.3030079,295.901595 L52.0890899,295.901595" id="Line-Copy-8" stroke="#979797" stroke-width="0.6912" stroke-linecap="square"></path>
                    <path d="M21.1436093,302.807117 L47.9296913,302.807117" id="Line-Copy-9" stroke="#979797" stroke-width="0.6912" stroke-linecap="square"></path>
                    <path d="M17.6774439,309.712638 L44.4635259,309.712638" id="Line-Copy-13" stroke="#979797" stroke-width="0.6912" stroke-linecap="square"></path>
                    <path d="M13.8646619,316.61816 L40.6507439,316.61816" id="Line-Copy-10" stroke="#979797" stroke-width="0.6912" stroke-linecap="square"></path>
                    <path d="M9.7052633,323.523681 L36.4913453,323.523681" id="Line-Copy-11" stroke="#979797" stroke-width="0.6912" stroke-linecap="square"></path>
                </g>
                <g id="House" transform="translate(288.086088, 0.000000)" sketch:type="MSShapeGroup">
                    <rect id="Rectangle-193" stroke="#A7BFE1" stroke-width="2.16" fill="#BFCFE4" x="7.20215219" y="144" width="135.400461" height="194.4"></rect>
                    <path d="M140.426494,129.6 L237.671022,90.0126563 L237.671022,299.28239 L140.426494,338.869733 L140.426494,129.6 Z" id="Rectangle-131-Copy-4" stroke="#A7BFE1" stroke-width="2.88" fill="#86909E"></path>
                    <g id="Roof">
                        <path d="M69.640029,49.9317169 L184.816087,0.501983564 L249.48846,98.64 L134.312402,148.069733 L69.640029,49.9317169 Z" id="Rectangle-131-Copy-5" stroke="#A7BFE1" stroke-width="2.88" fill="#86909E"></path>
                        <polygon id="Triangle-3" fill="#A7BFE1" points="69.8074228 48.7560938 135.400461 147.6 0 147.6 "></polygon>
                        <polygon id="Triangle-3-Copy" fill="#86909E" points="69.381501 58.32 121.716372 137.52 13.6840892 137.52 "></polygon>
                    </g>
                    <g id="windows" transform="translate(21.606457, 158.400000)" stroke="#979797">
                        <rect id="Rectangle-196" stroke-width="2.16" fill="#86909E" x="0" y="0" width="44.6533436" height="57.6"></rect>
                        <rect id="Rectangle-196-Copy" stroke-width="2.16" fill="#86909E" x="0" y="0" width="44.6533436" height="57.6"></rect>
                        <rect id="Rectangle-196-Copy-2" stroke-width="2.16" fill="#86909E" x="57.6172175" y="0" width="44.6533436" height="57.6"></rect>
                        <path d="M1.08032283,29.88 L42.9086465,29.88" id="Line" stroke-width="0.72" stroke-linecap="square"></path>
                        <path d="M58.6975404,29.88 L100.525864,29.88" id="Line-Copy-6" stroke-width="0.72" stroke-linecap="square"></path>
                    </g>
                    <g id="door-copy" transform="translate(33.129900, 225.360000)">
                        <rect id="Rectangle-153-Copy" fill="#979797" x="0.291319138" y="0.144813559" width="35.4561427" height="63.7179661"></rect>
                        <rect id="Rectangle-153" fill="#AFBDD0" x="2.59740972" y="3.04108475" width="30.8439615" height="60.8216949"></rect>
                        <ellipse id="Oval-147" fill="#9B9B9B" cx="29.4057127" cy="34.9000678" rx="2.30609058" ry="2.31701695"></ellipse>
                    </g>
                    <path d="M34.1335594,288 L68.7038899,288 L37.9639227,344.790703 L3.39359222,344.790703 L34.1335594,288 Z" id="Rectangle-201" fill="#86909E"></path>
                    <path d="M68.857217,288.442969 L68.857217,351.728992 L33.7938485,351.728992 L68.857217,288.442969 Z" id="Path-233" fill="#B2B1B2"></path>
                    <rect id="Rectangle-202" fill="#979797" x="3.16430495" y="344.88" width="34.5703305" height="6.8489924"></rect>
                    <rect id="Rectangle-203" fill="#AEBCD0" x="77.0630284" y="263.52" width="58.3374327" height="74.88"></rect>
                    <path d="M34.2102229,294.12 L62.038877,294.12" id="Line" stroke="#979797" stroke-width="0.72" stroke-linecap="square"></path>
                    <path d="M30.6091468,301.32 L58.4378009,301.32" id="Line-Copy-7" stroke="#979797" stroke-width="0.72" stroke-linecap="square"></path>
                    <path d="M26.2878555,308.52 L54.1165096,308.52" id="Line-Copy-8" stroke="#979797" stroke-width="0.72" stroke-linecap="square"></path>
                    <path d="M21.9665642,315.72 L49.7952182,315.72" id="Line-Copy-9" stroke="#979797" stroke-width="0.72" stroke-linecap="square"></path>
                    <path d="M18.3654881,322.92 L46.1941421,322.92" id="Line-Copy-13" stroke="#979797" stroke-width="0.72" stroke-linecap="square"></path>
                    <path d="M14.4043044,330.12 L42.2329584,330.12" id="Line-Copy-10" stroke="#979797" stroke-width="0.72" stroke-linecap="square"></path>
                    <path d="M10.0830131,337.32 L37.9116671,337.32" id="Line-Copy-11" stroke="#979797" stroke-width="0.72" stroke-linecap="square"></path>
                </g>
                <g id="House-Copy" transform="translate(439.331284, 72.000000)" sketch:type="MSShapeGroup">
                    <rect id="Rectangle-193" stroke="#A7BFE1" stroke-width="1.728" fill="#BFCFE4" x="5.77002395" y="115.141104" width="108.47645" height="155.440491"></rect>
                    <path d="M112.50307,103.626994 L190.41079,71.97331 L190.41079,239.303506 L112.50307,270.95719 L112.50307,103.626994 Z" id="Rectangle-131-Copy-4" stroke="#A7BFE1" stroke-width="2.304" fill="#86909E"></path>
                    <g id="Roof">
                        <path d="M55.7922999,39.9249515 L148.065914,0.401381541 L199.878363,78.8716564 L107.604748,118.395226 L55.7922999,39.9249515 Z" id="Rectangle-131-Copy-5" stroke="#A7BFE1" stroke-width="2.304" fill="#86909E"></path>
                        <polygon id="Triangle-3" fill="#A7BFE1" points="55.9264079 38.9849339 108.47645 118.019632 0 118.019632 "></polygon>
                        <polygon id="Triangle-3-Copy" fill="#86909E" points="55.5851794 46.6321472 97.5134047 109.959755 10.9630455 109.959755 "></polygon>
                    </g>
                    <g id="windows" transform="translate(17.310072, 126.655215)" stroke="#979797">
                        <rect id="Rectangle-196" stroke-width="1.728" fill="#86909E" x="0" y="0" width="35.7741485" height="46.0564417"></rect>
                        <rect id="Rectangle-196-Copy" stroke-width="1.728" fill="#86909E" x="0" y="0" width="35.7741485" height="46.0564417"></rect>
                        <rect id="Rectangle-196-Copy-2" stroke-width="1.728" fill="#86909E" x="46.1601916" y="0" width="35.7741485" height="46.0564417"></rect>
                        <path d="M0.865503592,23.8917791 L34.3763796,23.8917791" id="Line" stroke-width="0.576" stroke-linecap="square"></path>
                        <path d="M47.0256952,23.8917791 L80.5365712,23.8917791" id="Line-Copy-6" stroke-width="0.576" stroke-linecap="square"></path>
                    </g>
                    <g id="door-copy" transform="translate(26.542110, 180.195828)">
                        <rect id="Rectangle-153-Copy" fill="#979797" x="0.233391125" y="0.115791619" width="28.4057858" height="50.9483124"></rect>
                        <rect id="Rectangle-153" fill="#AFBDD0" x="2.08092191" y="2.431624" width="24.7107242" height="48.63248"></rect>
                        <ellipse id="Oval-147" fill="#9B9B9B" cx="23.5584672" cy="27.9057802" rx="1.84753078" ry="1.8526659"></ellipse>
                    </g>
                    <path d="M27.3461945,230.282209 L55.0423095,230.282209 L30.4149006,275.691544 L2.7187857,275.691544 L27.3461945,230.282209 Z" id="Rectangle-201" fill="#86909E"></path>
                    <path d="M55.1651479,230.636402 L55.1651479,281.239337 L27.0740342,281.239337 L55.1651479,230.636402 Z" id="Path-233" fill="#B2B1B2"></path>
                    <rect id="Rectangle-202" fill="#979797" x="2.53509158" y="275.762945" width="27.6961149" height="5.47639269"></rect>
                    <rect id="Rectangle-203" fill="#AEBCD0" x="61.7392562" y="210.708221" width="46.737194" height="59.8733742"></rect>
                    <path d="M27.4076137,235.175706 L49.7026161,235.175706" id="Line" stroke="#979797" stroke-width="0.576" stroke-linecap="square"></path>
                    <path d="M24.5226018,240.932761 L46.8176042,240.932761" id="Line-Copy-7" stroke="#979797" stroke-width="0.576" stroke-linecap="square"></path>
                    <path d="M21.0605874,246.689816 L43.3555898,246.689816" id="Line-Copy-8" stroke="#979797" stroke-width="0.576" stroke-linecap="square"></path>
                    <path d="M17.598573,252.446871 L39.8935754,252.446871" id="Line-Copy-9" stroke="#979797" stroke-width="0.576" stroke-linecap="square"></path>
                    <path d="M14.7135611,258.203926 L37.0085634,258.203926" id="Line-Copy-13" stroke="#979797" stroke-width="0.576" stroke-linecap="square"></path>
                    <path d="M11.5400479,263.960982 L33.8350503,263.960982" id="Line-Copy-10" stroke="#979797" stroke-width="0.576" stroke-linecap="square"></path>
                    <path d="M8.07803352,269.718037 L30.3730359,269.718037" id="Line-Copy-11" stroke="#979797" stroke-width="0.576" stroke-linecap="square"></path>
                </g>
                <g id="House-Copy-3" transform="translate(573.291314, 43.200000)" sketch:type="MSShapeGroup">
                    <rect id="Rectangle-193" stroke="#A7BFE1" stroke-width="2.0736" fill="#BFCFE4" x="6.93233093" y="138.110429" width="130.327821" height="186.44908"></rect>
                    <path d="M135.165559,124.299387 L228.766921,86.331157 L228.766921,287.041801 L135.165559,325.010031 L135.165559,124.299387 Z" id="Rectangle-131-Copy-4" stroke="#A7BFE1" stroke-width="2.7648" fill="#86909E"></path>
                    <g id="Roof">
                        <path d="M67.0310366,47.8895199 L177.892142,0.481452539 L240.14163,94.6056442 L129.280525,142.013712 L67.0310366,47.8895199 Z" id="Rectangle-131-Copy-5" stroke="#A7BFE1" stroke-width="2.7648" fill="#86909E"></path>
                        <polygon id="Triangle-3" fill="#A7BFE1" points="67.1921591 46.7619795 130.327821 141.56319 0 141.56319 "></polygon>
                        <polygon id="Triangle-3-Copy" fill="#86909E" points="66.782194 55.9347239 117.156393 131.89546 13.1714288 131.89546 "></polygon>
                    </g>
                    <g id="windows" transform="translate(20.796993, 151.921472)" stroke="#979797">
                        <rect id="Rectangle-196" stroke-width="2.0736" fill="#86909E" x="0" y="0" width="42.9804517" height="55.2441718"></rect>
                        <rect id="Rectangle-196-Copy" stroke-width="2.0736" fill="#86909E" x="0" y="0" width="42.9804517" height="55.2441718"></rect>
                        <rect id="Rectangle-196-Copy-2" stroke-width="2.0736" fill="#86909E" x="55.4586474" y="0" width="42.9804517" height="55.2441718"></rect>
                        <path d="M1.03984964,28.6579141 L41.301118,28.6579141" id="Line" stroke-width="0.6912" stroke-linecap="square"></path>
                        <path d="M56.4984971,28.6579141 L96.7597654,28.6579141" id="Line-Copy-6" stroke-width="0.6912" stroke-linecap="square"></path>
                    </g>
                    <g id="door-copy" transform="translate(31.888722, 216.142822)">
                        <rect id="Rectangle-153-Copy" fill="#979797" x="0.280405164" y="0.138890714" width="34.1278146" height="61.1119143"></rect>
                        <rect id="Rectangle-153" fill="#AFBDD0" x="2.50010042" y="2.916705" width="29.688424" height="58.3341"></rect>
                        <ellipse id="Oval-147" fill="#9B9B9B" cx="28.3040578" cy="33.4726622" rx="2.21969526" ry="2.22225143"></ellipse>
                    </g>
                    <path d="M32.8547805,276.220859 L66.1299689,276.220859 L36.5416432,330.688834 L3.26645476,330.688834 L32.8547805,276.220859 Z" id="Rectangle-201" fill="#86909E"></path>
                    <path d="M66.2775518,276.64571 L66.2775518,337.343349 L32.5277965,337.343348 L66.2775518,276.64571 Z" id="Path-233" fill="#B2B1B2"></path>
                    <rect id="Rectangle-202" fill="#979797" x="3.0457575" y="330.774479" width="33.2751884" height="6.56887001"></rect>
                    <rect id="Rectangle-203" fill="#AEBCD0" x="74.1759409" y="252.742086" width="56.1518805" height="71.8174233"></rect>
                    <path d="M32.9285719,282.090552 L59.7146539,282.090552" id="Line" stroke="#979797" stroke-width="0.6912" stroke-linecap="square"></path>
                    <path d="M29.4624064,288.996074 L56.2484884,288.996074" id="Line-Copy-7" stroke="#979797" stroke-width="0.6912" stroke-linecap="square"></path>
                    <path d="M25.3030079,295.901595 L52.0890899,295.901595" id="Line-Copy-8" stroke="#979797" stroke-width="0.6912" stroke-linecap="square"></path>
                    <path d="M21.1436093,302.807117 L47.9296913,302.807117" id="Line-Copy-9" stroke="#979797" stroke-width="0.6912" stroke-linecap="square"></path>
                    <path d="M17.6774439,309.712638 L44.4635259,309.712638" id="Line-Copy-13" stroke="#979797" stroke-width="0.6912" stroke-linecap="square"></path>
                    <path d="M13.8646619,316.61816 L40.6507439,316.61816" id="Line-Copy-10" stroke="#979797" stroke-width="0.6912" stroke-linecap="square"></path>
                    <path d="M9.7052633,323.523681 L36.4913453,323.523681" id="Line-Copy-11" stroke="#979797" stroke-width="0.6912" stroke-linecap="square"></path>
                </g>
            </g>
        </g>
    </g>
</svg>