<?xml version="1.0" encoding="UTF-8" standalone="no"?>
<svg width="143px" height="279px" viewBox="0 0 143 279" version="1.1" xmlns="http://www.w3.org/2000/svg" xmlns:xlink="http://www.w3.org/1999/xlink" xmlns:sketch="http://www.bohemiancoding.com/sketch/ns">
    <!-- Generator: Sketch 3.3.3 (12072) - http://www.bohemiancoding.com/sketch -->
    <title>UX Copy</title>
    <desc>Created with Sketch.</desc>
    <defs>
        <path id="path-1" d="M49.0961088,248.287482 C49.5084139,241.790694 52.4945478,226.961538 52.4945478,226.961538 L71.5,226.961538 C71.5,226.961538 67.7029583,239.291453 67.0291787,246.415385 C66.4763318,252.260683 68.8482444,265.869231 68.8482444,265.869231 L51.3582887,265.869231 C51.3582887,265.869231 48.6853487,254.759925 49.0961088,248.287482 Z"></path>
        <path id="path-2" d="M71.9040296,248.287482 C72.3163347,241.790694 75.3024686,226.961538 75.3024686,226.961538 L94.3079208,226.961538 C94.3079208,226.961538 90.5108791,239.291453 89.8370995,246.415385 C89.2842526,252.260683 91.6561652,265.869231 91.6561652,265.869231 L74.1662095,265.869231 C74.1662095,265.869231 71.4932695,254.759925 71.9040296,248.287482 Z"></path>
        <path id="path-3" d="M24.9739687,78.5309721 C24.9739687,78.5309721 12.2020759,78.9707382 6.69607205,78.9707382 C6.17874453,78.9707382 -5.58677685,50.93125 5.26099713,22.1107372 C16.1087711,-6.70977564 60.4797652,1.49661208 60.4797652,1.49661208 L60.4797652,120.700674 L20.6129561,120.700674 C20.6129561,120.700674 24.0272885,111.607717 25.4971236,95.6888872 C26.9669586,79.7700571 26.2198824,64.6209936 26.2198824,64.6209936 L24.9739687,78.5309721 Z"></path>
        <path id="path-4" d="M84.5967252,78.7237655 C84.5967252,78.7237655 71.8248324,78.9707382 66.3188285,78.9707382 C65.801501,78.9707382 54.0359796,50.93125 64.8837536,22.1107372 C75.7315276,-6.70977564 120.102522,1.68940555 120.102522,1.68940555 L120.102522,120.700674 L80.2357126,120.700674 C80.2357126,120.700674 83.650045,111.607717 85.11988,95.6888872 C86.5897151,79.7700571 85.8426389,64.6209936 85.8426389,64.6209936 L84.5967252,78.7237655 Z"></path>
        <path d="M40.945204,0.0949894763 L31.7862413,26.6751578 L59.7681207,11.6323417 L59.7681207,0.0949894763 L40.945204,0.0949894763 Z M78.7730035,0.0949894763 L87.75,26.6751578 L59.7681207,11.6323417 L59.7681207,0.0949894763 L78.7730035,0.0949894763 Z" id="path-5"></path>
        <path id="path-6" d="M2.16666667,69.8897436 L26.0684136,69.8897436 L24.5555556,82.8589744 L5.05555556,82.8589744 L2.16666667,69.8897436 Z"></path>
        <path id="path-7" d="M94.5769043,69.8897436 L118.478651,69.8897436 L116.965793,82.8589744 L97.4657932,82.8589744 L94.5769043,69.8897436 Z"></path>
        <path id="path-8" d="M5.77777778,134.541692 C17.0970152,147.145844 52.8932688,125.226508 68.1935764,125.369226 C80.4798827,125.48383 119.619694,145.60252 130.688368,137.014233 C149.91596,122.095366 137.944444,73.3772975 137.944444,62.3854155 C137.944444,36.7162435 115.555556,11.5892617 103.277778,6.54567194 C91,1.5020822 90.2277579,5.11492581 87.3888889,4.38413348 C82.2042443,3.04948278 77.271918,0.0610565584 71.8611111,0.0610565584 C37.7575278,0.0610565584 5.77777778,28.3625508 5.77777778,62.3854155 C5.77777778,71.2088278 -6.8967608,120.42839 5.77777778,134.541692 Z"></path>
        <path d="M135.055556,76.0141026 C135.055556,110.832824 106.762439,139.058974 71.8611111,139.058974 C36.9597832,139.058974 8.66666667,110.832824 8.66666667,76.0141026 C8.66666667,71.9399999 9.05403051,67.9561568 9.79401939,64.0972299 L26.4951172,53.3179487 C43.2402344,59.8307091 82.1034071,64.125641 103.396267,61.7558293 C124.689128,59.3860176 118.036784,43.3123898 123.7398,53.3179487 C128.482359,61.6384481 133.500001,72.563145 135.055555,76.0068605 Z" id="path-9"></path>
        <ellipse id="path-10" cx="40.4444444" cy="82.8589744" rx="7.94444444" ry="7.92564103"></ellipse>
        <ellipse id="path-11" cx="103.277778" cy="82.8589744" rx="7.94444444" ry="7.92564103"></ellipse>
        <ellipse id="path-12" cx="135.416667" cy="82.8589744" rx="7.58333333" ry="10.0871795"></ellipse>
        <ellipse id="path-13" cx="9.02777778" cy="82.8589744" rx="7.58333333" ry="10.0871795"></ellipse>
    </defs>
    <g id="Page-1" stroke="none" stroke-width="1" fill="none" fill-rule="evenodd" sketch:type="MSPage">
        <g id="Characters" sketch:type="MSArtboardGroup" transform="translate(-769.000000, -560.000000)">
            <g id="UX-Copy" sketch:type="MSLayerGroup" transform="translate(769.000000, 560.000000)">
                <g id="Rectangle-37">
                    <use fill="#FFEDDA" sketch:type="MSShapeGroup" xlink:href="#path-1"></use>
                    <use fill-opacity="0.04" fill="none" xlink:href="#path-1"></use>
                </g>
                <g id="Rectangle-37-Copy">
                    <use fill="#FFEDDA" sketch:type="MSShapeGroup" transform="translate(83.084516, 246.415385) scale(-1, 1) translate(-83.084516, -246.415385) " xlink:href="#path-2"></use>
                    <use fill-opacity="0.04" fill="none" xlink:href="#path-2"></use>
                </g>
                <g id="Path-17-Copy-2-+-Rectangle-35" transform="translate(106.166667, 190.215385)" sketch:type="MSShapeGroup">
                    <path d="M15.6564599,16.4796199 C11.496474,11.8924664 3.64713196,12.2916391 3.64713196,12.2916391 C3.64713196,12.2916391 -0.428861191,19.6064385 0.464767766,26.7385493 C1.35839672,33.8706602 9.85952279,40.6234826 14.8941213,37.909246 C19.9287198,35.1950095 11.9399726,28.900108 12.8336016,25.3340526 C13.7272305,21.7679972 13.8692022,29.4130909 15.6564601,32.0876325 C17.443718,34.7621741 20.64408,32.3633664 18.856822,29.2557055 C18.0810173,27.9067463 18.847252,19.998058 15.6564599,16.4796199 Z" id="Path-17-Copy-2" fill="#FFEDDA" transform="translate(9.859522, 25.402869) scale(-1, 1) translate(-9.859522, -25.402869) "></path>
                    <path d="M6.94645182,8.95328667 C6.94645182,3.31970738 5.05555556,0.720512821 5.05555556,0.720512821 L15.8888889,0.720512821 C15.8888889,0.720512821 16.8565538,-0.560789823 18.1592339,10.418939 C19.4619141,21.3986679 19.0898709,23.6189591 19.0898709,23.6189591 L4.33968099,16.5717949 C4.33968099,16.5717949 6.94645182,14.586866 6.94645182,8.95328667 Z" id="Rectangle-35" fill="#FFECD9"></path>
                </g>
                <g id="Path-17-Copy-2-+-Rectangle-35-Copy" transform="translate(27.083333, 209.669231) scale(-1, 1) translate(-27.083333, -209.669231) translate(17.333333, 190.215385)" sketch:type="MSShapeGroup">
                    <path d="M15.6564599,16.4796199 C11.496474,11.8924664 3.64713196,12.2916391 3.64713196,12.2916391 C3.64713196,12.2916391 -0.428861191,19.6064385 0.464767766,26.7385493 C1.35839672,33.8706602 9.85952279,40.6234826 14.8941213,37.909246 C19.9287198,35.1950095 11.9399726,28.900108 12.8336016,25.3340526 C13.7272305,21.7679972 13.8692022,29.4130909 15.6564601,32.0876325 C17.443718,34.7621741 20.64408,32.3633664 18.856822,29.2557055 C18.0810173,27.9067463 18.847252,19.998058 15.6564599,16.4796199 Z" id="Path-17-Copy-2" fill="#FFEDDA" transform="translate(9.859522, 25.402869) scale(-1, 1) translate(-9.859522, -25.402869) "></path>
                    <path d="M6.94645182,8.95328667 C6.94645182,3.31970738 5.05555556,0.720512821 5.05555556,0.720512821 L15.8888889,0.720512821 C15.8888889,0.720512821 16.8565538,-0.560789823 18.1592339,10.418939 C19.4619141,21.3986679 19.0898709,23.6189591 19.0898709,23.6189591 L4.33968099,16.5717949 C4.33968099,16.5717949 6.94645182,14.586866 6.94645182,8.95328667 Z" id="Rectangle-35" fill="#FFECD9"></path>
                </g>
                <g id="UX_cloth" transform="translate(11.555556, 118.884615)">
                    <g>
                        <g>
                            <g id="Path-10-Copy-2-+-Path-10-Copy-3" transform="translate(0.000000, 0.720513)">
                                <g id="Path-10-Copy-2">
                                    <use fill="#172535" sketch:type="MSShapeGroup" xlink:href="#path-3"></use>
                                    <use fill-opacity="0.05" fill="none" xlink:href="#path-3"></use>
                                </g>
                                <g id="Path-10-Copy-3">
                                    <use fill="#172535" sketch:type="MSShapeGroup" transform="translate(90.204039, 60.625595) scale(-1, 1) translate(-90.204039, -60.625595) " xlink:href="#path-4"></use>
                                    <use fill-opacity="0.05" fill="none" xlink:href="#path-4"></use>
                                </g>
                            </g>
                            <g id="Path-47">
                                <use fill="#FFFFFF" sketch:type="MSShapeGroup" xlink:href="#path-5"></use>
                                <use fill-opacity="0.05" fill="none" xlink:href="#path-5"></use>
                            </g>
                        </g>
                        <g id="Rectangle-16-Copy-2">
                            <use fill="#FFFFFF" sketch:type="MSShapeGroup" xlink:href="#path-6"></use>
                            <use fill-opacity="0.05" fill="none" xlink:href="#path-6"></use>
                        </g>
                        <g id="Rectangle-16-Copy-3">
                            <use fill="#FFFFFF" sketch:type="MSShapeGroup" transform="translate(106.527778, 76.374359) scale(-1, 1) translate(-106.527778, -76.374359) " xlink:href="#path-7"></use>
                            <use fill-opacity="0.05" fill="none" xlink:href="#path-7"></use>
                        </g>
                    </g>
                </g>
                <g id="UX_head">
                    <g id="Arch_head-Copy">
                        <g id="Oval-28">
                            <use fill="#603916" sketch:type="MSShapeGroup" xlink:href="#path-8"></use>
                            <use fill-opacity="0.0618003731" fill="none" xlink:href="#path-8"></use>
                        </g>
                        <g id="Oval-27">
                            <use fill="#FFEDDA" sketch:type="MSShapeGroup" xlink:href="#path-9"></use>
                            <use fill-opacity="0.04" fill="none" xlink:href="#path-9"></use>
                        </g>
                        <g id="Oval-33">
                            <use fill="#8B572A" sketch:type="MSShapeGroup" xlink:href="#path-10"></use>
                            <use fill-opacity="0.0618003731" fill="none" xlink:href="#path-10"></use>
                        </g>
                        <g id="Oval-33-Copy">
                            <use fill="#8B572A" sketch:type="MSShapeGroup" xlink:href="#path-11"></use>
                            <use fill-opacity="0.0618003731" fill="none" xlink:href="#path-11"></use>
                        </g>
                    </g>
                    <g id="Oval-35-Copy-3">
                        <use fill="#FFEDDA" sketch:type="MSShapeGroup" xlink:href="#path-12"></use>
                        <use fill-opacity="0.04" fill="none" xlink:href="#path-12"></use>
                    </g>
                    <g id="Oval-35-Copy-2">
                        <use fill="#FFEDDA" sketch:type="MSShapeGroup" xlink:href="#path-13"></use>
                        <use fill-opacity="0.04" fill="none" xlink:href="#path-13"></use>
                    </g>
                    <path d="M30.5463325,73.053736 C30.5463325,73.053736 31.262207,65.8359426 40.8126085,66.8175006" id="Path-43" stroke="#603916" stroke-width="2.16" stroke-linecap="round" stroke-linejoin="round" sketch:type="MSShapeGroup"></path>
                    <path d="M103.922418,73.053736 C103.922418,73.053736 104.638292,65.8359426 114.188694,66.8175006" id="Path-43-Copy" stroke="#603916" stroke-width="2.16" stroke-linecap="round" stroke-linejoin="round" sketch:type="MSShapeGroup" transform="translate(109.055556, 69.889744) scale(-1, 1) translate(-109.055556, -69.889744) "></path>
                    <ellipse id="Oval-58" fill="#F8E0DA" sketch:type="MSShapeGroup" cx="35.75" cy="104.114103" rx="9.02777778" ry="9.00641026"></ellipse>
                    <ellipse id="Oval-58-Copy" fill="#F8E0DA" sketch:type="MSShapeGroup" cx="108.694444" cy="104.114103" rx="9.02777778" ry="9.00641026"></ellipse>
                </g>
                <circle id="Oval-72-Copy-3" fill="#B8E986" sketch:type="MSShapeGroup" cx="8.5" cy="91.5" r="3.5"></circle>
                <circle id="Oval-72-Copy-2" fill="#B8E986" sketch:type="MSShapeGroup" cx="134.5" cy="91.5" r="3.5"></circle>
                <g id="UX_shoes" transform="translate(29.611111, 255.782051)" fill="#9B9B9B" sketch:type="MSShapeGroup">
                    <g id="Rectangle-18-+-Oval-38-Copy-2-+-Oval-38-Copy-2-Copy-+-Oval-38-Copy-3" transform="translate(43.333333, 0.720513)">
                        <g id="Rectangle-18-+-Oval-38-Copy-2-+-Oval-38-Copy-2-Copy" transform="translate(10.864283, 11.167949) scale(-1, 1) translate(-10.864283, -11.167949) translate(0.030950, 0.000000)">
                            <path d="M2.38663549,2.88205131 C3.35222517,-0.29985023 19.5112014,0.158315775 19.5112014,0.158315775 C19.5112014,0.158315775 22.24422,9.65796741 20.7652161,17.2923073 C19.2587317,25.0684968 0.0309496406,20.3938904 0.0309496406,20.3938904 C0.0309496406,20.3938904 0.536833044,8.97769355 2.38663549,2.88205131 Z" id="Rectangle-18"></path>
                        </g>
                        <path d="M16.0017371,21.0710026 C9.20536341,19.8431289 10.8723981,21.0184285 11.5303613,17.2869339 C12.8564516,9.76630218 18.9671471,4.14012968 26.5382554,5.47512036 C34.1093638,6.81011103 39.3327535,11.4892893 38.0066632,19.0099211 C37.338536,22.7990582 22.9030985,22.317844 16.0017371,21.0710026 Z" id="Oval-38-Copy-3"></path>
                    </g>
                    <g id="Rectangle-18-+-Oval-38-Copy-2-+-Oval-38-Copy-2-Copy-+-Oval-38-Copy-3-Copy" transform="translate(20.222222, 12.608974) scale(-1, 1) translate(-20.222222, -12.608974) ">
                        <g id="Rectangle-18-+-Oval-38-Copy-2-+-Oval-38-Copy-2-Copy" transform="translate(10.864283, 11.167949) scale(-1, 1) translate(-10.864283, -11.167949) translate(0.030950, 0.000000)">
                            <path d="M2.38663549,2.88205131 C3.35222517,-0.29985023 19.5112014,0.158315775 19.5112014,0.158315775 C19.5112014,0.158315775 22.24422,9.65796741 20.7652161,17.2923073 C19.2587317,25.0684968 0.0309496406,20.3938904 0.0309496406,20.3938904 C0.0309496406,20.3938904 0.536833044,8.97769355 2.38663549,2.88205131 Z" id="Rectangle-18"></path>
                        </g>
                        <path d="M33.3948397,22.5927019 C40.3011793,22.5636603 38.455382,23.4316268 38.455382,19.642568 C38.455382,12.0059184 33.4144963,5.40410895 25.7265914,5.40410895 C18.0386865,5.40410895 12.082121,9.10516794 12.082121,16.7418175 C12.082121,20.5894082 26.3818138,22.6221922 33.3948397,22.5927019 Z" id="Oval-38-Copy-3" transform="translate(25.380731, 14.031495) scale(-1, 1) rotate(-10.000000) translate(-25.380731, -14.031495) "></path>
                    </g>
                </g>
            </g>
        </g>
    </g>
</svg>