<?xml version="1.0" encoding="UTF-8" standalone="no"?>
<svg width="143px" height="315px" viewBox="0 0 143 315" version="1.1" xmlns="http://www.w3.org/2000/svg" xmlns:xlink="http://www.w3.org/1999/xlink" xmlns:sketch="http://www.bohemiancoding.com/sketch/ns">
    <!-- Generator: Sketch 3.3.3 (12072) - http://www.bohemiancoding.com/sketch -->
    <title>UX Copy 2 + Rectangle 115 + Arch_gown Copy 2 + Path 10 Copy 6 Copy</title>
    <desc>Created with Sketch.</desc>
    <defs>
        <path id="path-1" d="M24.9739687,78.382318 C24.9739687,78.382318 12.2020759,78.8212517 6.69607205,78.8212517 C6.17874453,78.8212517 -5.58677685,50.8348404 5.26099713,22.068883 C16.1087711,-6.69707447 60.4797652,1.49377909 60.4797652,1.49377909 L60.4797652,120.472195 L20.6129561,120.472195 C20.6129561,120.472195 24.0272885,111.396451 25.4971236,95.5077543 C26.9669586,79.6190575 26.2198824,64.4986702 26.2198824,64.4986702 L24.9739687,78.382318 Z"></path>
        <path id="path-2" d="M84.5967252,78.5747465 C84.5967252,78.5747465 71.8248324,78.8212517 66.3188285,78.8212517 C65.801501,78.8212517 54.0359796,50.8348404 64.8837536,22.068883 C75.7315276,-6.69707447 120.102522,1.68620761 120.102522,1.68620761 L120.102522,120.472195 L80.2357126,120.472195 C80.2357126,120.472195 83.650045,111.396451 85.11988,95.5077543 C86.5897151,79.6190575 85.8426389,64.4986702 85.8426389,64.4986702 L84.5967252,78.5747465 Z"></path>
        <path d="M40.945204,0.0948096674 L31.7862413,26.6246634 L59.7681207,11.6103225 L59.7681207,0.0948096674 L40.945204,0.0948096674 Z M78.7730035,0.0948096674 L87.75,26.6246634 L59.7681207,11.6103225 L59.7681207,0.0948096674 L78.7730035,0.0948096674 Z" id="path-3"></path>
        <path id="path-4" d="M2.16666667,69.7574468 L26.0684136,69.7574468 L24.5555556,82.7021277 L5.05555556,82.7021277 L2.16666667,69.7574468 Z"></path>
        <path id="path-5" d="M94.5769043,69.7574468 L118.478651,69.7574468 L116.965793,82.7021277 L97.4657932,82.7021277 L94.5769043,69.7574468 Z"></path>
        <path id="path-6" d="M5.77777778,134.287013 C17.0970152,146.867306 52.8932688,124.989462 68.1935764,125.13191 C80.4798827,125.246297 119.619694,145.326904 130.688368,136.754874 C149.91596,121.864247 137.944444,73.238399 137.944444,62.267324 C137.944444,36.6467421 115.555556,11.567324 103.277778,6.53328141 C91,1.49923885 90.2277579,5.10524358 87.3888889,4.3758346 C82.2042443,3.04371031 77.271918,0.0609409822 71.8611111,0.0609409822 C37.7575278,0.0609409822 5.77777778,28.3088623 5.77777778,62.267324 C5.77777778,71.0740341 -6.8967608,120.200427 5.77777778,134.287013 Z"></path>
        <ellipse id="path-7" cx="40.4444444" cy="82.7021277" rx="7.94444444" ry="7.9106383"></ellipse>
        <ellipse id="path-8" cx="103.277778" cy="82.7021277" rx="7.94444444" ry="7.9106383"></ellipse>
        <rect id="path-9" x="0" y="0" width="72.2222222" height="93.4893617"></rect>
    </defs>
    <g id="Page-1" stroke="none" stroke-width="1" fill="none" fill-rule="evenodd" sketch:type="MSPage">
        <g id="Characters" sketch:type="MSArtboardGroup" transform="translate(-540.000000, -2081.000000)">
            <g id="UX-Copy-2-+-Rectangle-115-+-Arch_gown-Copy-2-+-Path-10-Copy-6-Copy" sketch:type="MSLayerGroup" transform="translate(540.000000, 2060.000000)">
                <g id="UX-Copy-2" transform="translate(0.000000, 57.531915)">
                    <path d="M49.0961088,247.81749 C49.5084139,241.333 52.4945478,226.531915 52.4945478,226.531915 L71.5,226.531915 C71.5,226.531915 67.7029583,238.838489 67.0291787,245.948936 C66.4763318,251.78317 68.8482444,265.365957 68.8482444,265.365957 L51.3582887,265.365957 C51.3582887,265.365957 48.6853487,254.27768 49.0961088,247.81749 Z" id="Rectangle-37" fill="#FFEDDA" sketch:type="MSShapeGroup"></path>
                    <path d="M71.9040296,247.81749 C72.3163347,241.333 75.3024686,226.531915 75.3024686,226.531915 L94.3079208,226.531915 C94.3079208,226.531915 90.5108791,238.838489 89.8370995,245.948936 C89.2842526,251.78317 91.6561652,265.365957 91.6561652,265.365957 L74.1662095,265.365957 C74.1662095,265.365957 71.4932695,254.27768 71.9040296,247.81749 Z" id="Rectangle-37-Copy" fill="#FFEDDA" sketch:type="MSShapeGroup" transform="translate(83.084516, 245.948936) scale(-1, 1) translate(-83.084516, -245.948936) "></path>
                    <g id="Path-17-Copy-2-+-Rectangle-35" transform="translate(106.166667, 189.855319)" sketch:type="MSShapeGroup">
                        <path d="M15.6564599,16.448425 C11.496474,11.8699548 3.64713196,12.2683718 3.64713196,12.2683718 C3.64713196,12.2683718 -0.428861191,19.5693247 0.464767766,26.687935 C1.35839672,33.8065452 9.85952279,40.5465849 14.8941213,37.8374863 C19.9287198,35.1283876 11.9399726,28.845402 12.8336016,25.2860969 C13.7272305,21.7267917 13.8692022,29.3574138 15.6564601,32.0268927 C17.443718,34.6963715 20.64408,32.3021047 18.856822,29.2003263 C18.0810173,27.8539206 18.847252,19.9602029 15.6564599,16.448425 Z" id="Path-17-Copy-2" fill="#FFEDDA" transform="translate(9.859522, 25.354783) scale(-1, 1) translate(-9.859522, -25.354783) "></path>
                        <path d="M6.94645182,8.93633868 C6.94645182,3.31342339 5.05555556,0.719148936 5.05555556,0.719148936 L15.8888889,0.719148936 C15.8888889,0.719148936 16.8565538,-0.559728284 18.1592339,10.3992166 C19.4619141,21.3581616 19.0898709,23.5742499 19.0898709,23.5742499 L4.33968099,16.5404255 C4.33968099,16.5404255 6.94645182,14.559254 6.94645182,8.93633868 Z" id="Rectangle-35" fill="#FFECD9"></path>
                    </g>
                    <g id="Path-17-Copy-2-+-Rectangle-35-Copy" transform="translate(27.083333, 209.272340) scale(-1, 1) translate(-27.083333, -209.272340) translate(17.333333, 189.855319)" sketch:type="MSShapeGroup">
                        <path d="M15.6564599,16.448425 C11.496474,11.8699548 3.64713196,12.2683718 3.64713196,12.2683718 C3.64713196,12.2683718 -0.428861191,19.5693247 0.464767766,26.687935 C1.35839672,33.8065452 9.85952279,40.5465849 14.8941213,37.8374863 C19.9287198,35.1283876 11.9399726,28.845402 12.8336016,25.2860969 C13.7272305,21.7267917 13.8692022,29.3574138 15.6564601,32.0268927 C17.443718,34.6963715 20.64408,32.3021047 18.856822,29.2003263 C18.0810173,27.8539206 18.847252,19.9602029 15.6564599,16.448425 Z" id="Path-17-Copy-2" fill="#FFEDDA" transform="translate(9.859522, 25.354783) scale(-1, 1) translate(-9.859522, -25.354783) "></path>
                        <path d="M6.94645182,8.93633868 C6.94645182,3.31342339 5.05555556,0.719148936 5.05555556,0.719148936 L15.8888889,0.719148936 C15.8888889,0.719148936 16.8565538,-0.559728284 18.1592339,10.3992166 C19.4619141,21.3581616 19.0898709,23.5742499 19.0898709,23.5742499 L4.33968099,16.5404255 C4.33968099,16.5404255 6.94645182,14.559254 6.94645182,8.93633868 Z" id="Rectangle-35" fill="#FFECD9"></path>
                    </g>
                    <g id="UX_cloth" transform="translate(11.555556, 118.659574)">
                        <g>
                            <g>
                                <g id="Path-10-Copy-2-+-Path-10-Copy-3" transform="translate(0.000000, 0.719149)">
                                    <g id="Path-10-Copy-2">
                                        <use fill="#172535" fill-rule="evenodd" sketch:type="MSShapeGroup" xlink:href="#path-1"></use>
                                        <use fill="none" xlink:href="#path-1"></use>
                                    </g>
                                    <g id="Path-10-Copy-3">
                                        <use fill="#172535" fill-rule="evenodd" sketch:type="MSShapeGroup" transform="translate(90.204039, 60.510834) scale(-1, 1) translate(-90.204039, -60.510834) " xlink:href="#path-2"></use>
                                        <use fill="none" xlink:href="#path-2"></use>
                                    </g>
                                </g>
                                <g id="Path-47">
                                    <use fill="#FFFFFF" fill-rule="evenodd" sketch:type="MSShapeGroup" xlink:href="#path-3"></use>
                                    <use fill="none" xlink:href="#path-3"></use>
                                </g>
                            </g>
                            <g id="Rectangle-16-Copy-2">
                                <use fill="#FFFFFF" fill-rule="evenodd" sketch:type="MSShapeGroup" xlink:href="#path-4"></use>
                                <use fill="none" xlink:href="#path-4"></use>
                            </g>
                            <g id="Rectangle-16-Copy-3">
                                <use fill="#FFFFFF" fill-rule="evenodd" sketch:type="MSShapeGroup" transform="translate(106.527778, 76.229787) scale(-1, 1) translate(-106.527778, -76.229787) " xlink:href="#path-5"></use>
                                <use fill="none" xlink:href="#path-5"></use>
                            </g>
                        </g>
                    </g>
                    <g id="UX_head">
                        <g id="Arch_head-Copy">
                            <g id="Oval-28">
                                <use fill="#603916" fill-rule="evenodd" sketch:type="MSShapeGroup" xlink:href="#path-6"></use>
                                <use fill="none" xlink:href="#path-6"></use>
                            </g>
                            <path d="M135.055556,75.8702128 C135.055556,110.623024 106.762439,138.795745 71.8611111,138.795745 C36.9597832,138.795745 8.66666667,110.623024 8.66666667,75.8702128 C8.66666667,71.8038222 9.05403051,67.8275202 9.79401939,63.975898 L26.4951172,53.2170213 C43.2402344,59.7174535 82.1034071,64.0042553 103.396267,61.6389295 C124.689128,59.2736037 118.036784,43.2304023 123.7398,53.2170213 C128.482359,61.5217704 133.500001,72.4257877 135.055555,75.8629845 Z" id="Oval-27" fill="#FFEDDA" sketch:type="MSShapeGroup"></path>
                            <g id="Oval-33">
                                <use fill="#8B572A" fill-rule="evenodd" sketch:type="MSShapeGroup" xlink:href="#path-7"></use>
                                <use fill="none" xlink:href="#path-7"></use>
                            </g>
                            <g id="Oval-33-Copy">
                                <use fill="#8B572A" fill-rule="evenodd" sketch:type="MSShapeGroup" xlink:href="#path-8"></use>
                                <use fill="none" xlink:href="#path-8"></use>
                            </g>
                        </g>
                        <ellipse id="Oval-35-Copy-3" fill="#FFEDDA" sketch:type="MSShapeGroup" cx="135.416667" cy="82.7021277" rx="7.58333333" ry="10.0680851"></ellipse>
                        <ellipse id="Oval-35-Copy-2" fill="#FFEDDA" sketch:type="MSShapeGroup" cx="9.02777778" cy="82.7021277" rx="7.58333333" ry="10.0680851"></ellipse>
                        <ellipse id="Oval-72" fill="#B8E986" sketch:type="MSShapeGroup" cx="10.4722222" cy="93.8489362" rx="3.25" ry="3.23617021"></ellipse>
                        <ellipse id="Oval-72-Copy" fill="#B8E986" sketch:type="MSShapeGroup" cx="133.972222" cy="93.8489362" rx="3.25" ry="3.23617021"></ellipse>
                        <path d="M30.5463325,72.91545 C30.5463325,72.91545 31.262207,65.7113194 40.8126085,66.6910193" id="Path-43" stroke="#603916" stroke-width="2.16" stroke-linecap="round" stroke-linejoin="round" sketch:type="MSShapeGroup"></path>
                        <path d="M103.922418,72.91545 C103.922418,72.91545 104.638292,65.7113194 114.188694,66.6910193" id="Path-43-Copy" stroke="#603916" stroke-width="2.16" stroke-linecap="round" stroke-linejoin="round" sketch:type="MSShapeGroup" transform="translate(109.055556, 69.757447) scale(-1, 1) translate(-109.055556, -69.757447) "></path>
                        <ellipse id="Oval-58" fill="#F8E0DA" sketch:type="MSShapeGroup" cx="35.75" cy="103.917021" rx="9.02777778" ry="8.9893617"></ellipse>
                        <ellipse id="Oval-58-Copy" fill="#F8E0DA" sketch:type="MSShapeGroup" cx="108.694444" cy="103.917021" rx="9.02777778" ry="8.9893617"></ellipse>
                    </g>
                    <g id="UX_shoes" transform="translate(29.611111, 255.297872)" fill="#9B9B9B" sketch:type="MSShapeGroup">
                        <g id="Rectangle-18-+-Oval-38-Copy-2-+-Oval-38-Copy-2-Copy-+-Oval-38-Copy-3" transform="translate(43.333333, 0.719149)">
                            <g id="Rectangle-18-+-Oval-38-Copy-2-+-Oval-38-Copy-2-Copy" transform="translate(10.864283, 11.146809) scale(-1, 1) translate(-10.864283, -11.146809) translate(0.030950, 0.000000)">
                                <path d="M2.38663549,2.87659577 C3.35222517,-0.299282633 19.5112014,0.158016094 19.5112014,0.158016094 C19.5112014,0.158016094 22.24422,9.6396855 20.7652161,17.2595741 C19.2587317,25.0210437 0.0309496406,20.355286 0.0309496406,20.355286 C0.0309496406,20.355286 0.536833044,8.96069936 2.38663549,2.87659577 Z" id="Rectangle-18"></path>
                            </g>
                            <path d="M16.0045512,21.0284823 C9.20816797,19.8006627 10.875488,20.9743442 11.5322057,17.2499131 C12.8557858,9.7435175 18.9643112,4.12965194 26.5354196,5.46464262 C34.1065279,6.7996333 39.3311341,11.4719122 38.0075541,18.9783078 C37.3406917,22.7602724 22.9059223,22.2752687 16.0045512,21.0284823 Z" id="Oval-38-Copy-3"></path>
                        </g>
                        <g id="Rectangle-18-+-Oval-38-Copy-2-+-Oval-38-Copy-2-Copy-+-Oval-38-Copy-3-Copy" transform="translate(20.222222, 12.585106) scale(-1, 1) translate(-20.222222, -12.585106) ">
                            <g id="Rectangle-18-+-Oval-38-Copy-2-+-Oval-38-Copy-2-Copy" transform="translate(10.864283, 11.146809) scale(-1, 1) translate(-10.864283, -11.146809) translate(0.030950, 0.000000)">
                                <path d="M2.38663549,2.87659577 C3.35222517,-0.299282633 19.5112014,0.158016094 19.5112014,0.158016094 C19.5112014,0.158016094 22.24422,9.6396855 20.7652161,17.2595741 C19.2587317,25.0210437 0.0309496406,20.355286 0.0309496406,20.355286 C0.0309496406,20.355286 0.536833044,8.96069936 2.38663549,2.87659577 Z" id="Rectangle-18"></path>
                            </g>
                            <path d="M33.3948397,22.5499354 C40.3011793,22.5209488 38.455382,23.3872723 38.455382,19.6053859 C38.455382,11.983192 33.4144963,5.39387932 25.7265914,5.39387932 C18.0386865,5.39387932 12.082121,9.08793244 12.082121,16.7101263 C12.082121,20.5504338 26.3818138,22.5793698 33.3948397,22.5499354 Z" id="Oval-38-Copy-3" transform="translate(25.380731, 14.004934) scale(-1, 1) rotate(-10.000000) translate(-25.380731, -14.004934) "></path>
                        </g>
                    </g>
                </g>
                <g id="Rectangle-115-+-Arch_gown-Copy-2" transform="translate(0.722222, 0.359574)">
                    <mask id="mask-10" sketch:name="Mask" fill="white">
                        <use xlink:href="#path-9"></use>
                    </mask>
                    <use id="Mask" sketch:type="MSShapeGroup" xlink:href="#path-9"></use>
                    <g id="Arch_gown-Copy-2" mask="url(#mask-10)">
                        <g transform="translate(1.444444, 21.574468)">
                            <g id="Rectangle-52-+-Rectangle-53">
                                <path d="M23.4425973,1.88495678 C24.0226222,0.843923897 25.4696783,0 26.6499324,0 L139.398448,0 C140.589786,0 141.089126,0.837151369 140.505328,1.88495678 L118.164115,41.9831283 C117.58409,43.0241612 116.137034,43.8680851 114.956779,43.8680851 L2.20826339,43.8680851 C1.01692604,43.8680851 0.517585966,43.0309337 1.10138426,41.9831283 L23.4425973,1.88495678 Z" id="Rectangle-52" fill="#3B3445" sketch:type="MSShapeGroup"></path>
                                <path d="M111.443355,26.1067788 L111.443355,53.9361702 C111.443355,53.9361702 92.7502123,46.2832574 68.0250332,46.2832574 C43.2998542,46.2832574 24.6067118,53.9361702 24.6067118,53.9361702 L24.6067118,26.1067788 C24.6067118,20.8234278 44.0457565,16.5404255 68.0250332,16.5404255 C92.00431,16.5404255 111.443355,20.8234278 111.443355,26.1067788 Z" id="Rectangle-53" fill="#5D526E" sketch:type="MSShapeGroup"></path>
                            </g>
                            <g id="Rectangle-54-+-Oval-90" transform="translate(5.777778, 43.148936)">
                                <rect id="Rectangle-54" fill="#EE8822" sketch:type="MSShapeGroup" x="1.44444444" y="0" width="2.88888889" height="28.7659574"></rect>
                                <ellipse id="Oval-90" fill="#EE8822" sketch:type="MSShapeGroup" cx="2.88888889" cy="6.47234043" rx="2.88888889" ry="2.87659574"></ellipse>
                            </g>
                        </g>
                    </g>
                </g>
                <path d="M29.3257076,179.377528 C23.8567035,182.768147 19.203218,187.837796 16.3862365,195.299064 C4.42210815,226.988149 15.5496419,270.849465 15.5496419,270.849465 L34.5975477,268.503102 L38.3977922,238.448 C38.3977922,238.448 37.0068362,266.172188 35.8021921,281.106468 C34.597548,296.040747 27.4444447,306.511246 27.4444447,306.511246 L73.4417908,306.511246 L73.4417896,196.002006 C72.9616192,196.012792 72.4801191,196.018213 71.9973473,196.018213 C55.5239724,196.018213 40.5312528,189.70575 29.3257076,179.377528 Z" id="Path-10-Copy-6" fill="#3B3445" sketch:type="MSShapeGroup"></path>
            </g>
        </g>
    </g>
</svg>