<?xml version="1.0" encoding="UTF-8" standalone="no"?>
<svg width="251px" height="259px" viewBox="0 0 251 259" version="1.1" xmlns="http://www.w3.org/2000/svg" xmlns:xlink="http://www.w3.org/1999/xlink" xmlns:sketch="http://www.bohemiancoding.com/sketch/ns">
    <!-- Generator: Sketch 3.3.3 (12072) - http://www.bohemiancoding.com/sketch -->
    <title>ux_face</title>
    <desc>Created with Sketch.</desc>
    <defs>
        <linearGradient x1="50%" y1="21.9049788%" x2="50%" y2="100%" id="linearGradient-1">
            <stop stop-color="#FCE8C5" offset="0%"></stop>
            <stop stop-color="#FEF1DB" offset="100%"></stop>
        </linearGradient>
        <linearGradient x1="50%" y1="-1.20876634%" x2="50%" y2="75.158752%" id="linearGradient-2">
            <stop stop-color="#FFFFFF" stop-opacity="0.633491848" offset="0%"></stop>
            <stop stop-color="#FFFFFF" stop-opacity="0" offset="100%"></stop>
        </linearGradient>
    </defs>
    <g id="Page-1" stroke="none" stroke-width="1" fill="none" fill-rule="evenodd" sketch:type="MSPage">
        <g id="Characters" sketch:type="MSArtboardGroup" transform="translate(-613.000000, -157.000000)">
            <g id="ux_face" sketch:type="MSLayerGroup" transform="translate(613.000000, 157.000000)">
                <path d="M11,120 C11,120 8.99999985,202 2,213 C-4.99999985,224 15.9999998,210 15.9999998,210 L22.0000004,223 C22.0000004,223 30.999998,208 31.0000004,215 C31.0000027,222 39,226 39,226 C39,226 43.0000018,215 49.0000004,215 C54.9999989,215 36.0555538,186 36.0555538,186 L31,118 L11,120 Z M240.37287,120 C240.37287,120 242.37287,202 249.37287,213 C256.37287,224 235.37287,210 235.37287,210 L229,227 C229,227 220.372872,206 220.37287,213 C220.372867,220 213,233 213,233 C213,233 208.372868,215 202.37287,215 C196.372871,215 215.317316,186 215.317316,186 L220.37287,118 L240.37287,120 Z" id="Path-3" fill="#4A4A4A" sketch:type="MSShapeGroup"></path>
                <g id="face-" transform="translate(17.000000, 45.000000)" sketch:type="MSShapeGroup">
                    <path d="M15,130 C21.627417,130 27,120.004468 27,106.166667 C27,92.3288654 21.627417,86 15,86 C8.372583,86 0,92.3288654 0,106.166667 C0,120.004468 8.372583,130 15,130 Z" id="Oval-5" fill="#FCE8C5"></path>
                    <path d="M209,130 C202.372583,130 197,120.004468 197,106.166667 C197,92.3288654 202.372583,86 209,86 C215.627417,86 224,92.3288654 224,106.166667 C224,120.004468 215.627417,130 209,130 Z" id="Oval-5-Copy" fill="#FCE8C5"></path>
                    <path d="M85.0000014,207.000002 C108.159132,215.073685 116.000001,215.000002 136.000001,208.000002 C165.62947,197.629688 188.000001,182.000002 205.000001,141.000002 C209.511667,130.118927 212.385184,64.8568754 207.931054,54.480349 C193.734682,21.4078886 146.368747,0.332949058 106.011537,0.332949058 C66.5845902,0.332949058 32.7089344,22.6153571 17.931049,54.4803486 C12.836392,65.4657633 12.091221,122.404996 15.9310545,134.480349 C25,163.000002 52.0689507,195.519656 85.0000014,207.000002 Z" id="Oval-7" fill="url(#linearGradient-1)"></path>
                </g>
                <path d="M86.9999964,63 C86.9999964,63 88.0000003,107 54.0000003,112 C20.0000003,117 37.0000003,143 37.0000003,143 C37.0000003,143 12,147.79631 9.00000001,116.195197 C6.00000002,84.5940848 39.9999994,17.1952001 73.000002,6.19520007 C106.000005,-4.80479993 138.999996,3.00000003 138.999996,3.00000003 C138.999996,3.00000003 233.999994,6.00000312 238.999996,69 C243.999999,131.999997 238.999996,140 238.999996,140 C238.999996,140 228.999994,140.000003 224.999996,136 C220.999999,131.999997 216.999992,110.1952 203.999994,113.195197 C190.999997,116.195194 166.999996,89 166.999996,89 C166.999996,89 162.999994,100.999999 152.999996,103 C142.999999,105.000001 86.9999964,63 86.9999964,63 Z" id="Path-2" fill="#4A4A4A" sketch:type="MSShapeGroup"></path>
                <g id="Glasses-Copy" transform="translate(44.000000, 123.000000)" sketch:type="MSShapeGroup">
                    <g id="Oval-1-Copy-+-Rectangle-1-+-Oval-1" transform="translate(0.472620, 0.146180)">
                        <ellipse id="Oval-1-Copy" fill-opacity="0.2" fill="#C3C3C3" cx="33.1328842" cy="33.1328842" rx="33.1328842" ry="33.1328842"></ellipse>
                        <rect id="Rectangle-1" fill="url(#linearGradient-2)" transform="translate(33.749310, 33.749310) rotate(41.000000) translate(-33.749310, -33.749310) " x="23.1159657" y="1.54106438" width="21.2666884" height="64.4164911"></rect>
                        <ellipse id="Oval-1" stroke="#4A4A4A" stroke-width="5" cx="33.1328842" cy="33.1328842" rx="33.1328842" ry="33.1328842"></ellipse>
                    </g>
                    <g id="Oval-1-Copy-+-Rectangle-1-+-Oval-1-Copy" transform="translate(98.999355, 0.146180)">
                        <ellipse id="Oval-1-Copy" fill-opacity="0.2" fill="#C3C3C3" cx="33.1328842" cy="33.1328842" rx="33.1328842" ry="33.1328842"></ellipse>
                        <rect id="Rectangle-1" fill="url(#linearGradient-2)" transform="translate(33.749310, 33.749310) rotate(41.000000) translate(-33.749310, -33.749310) " x="23.1159657" y="1.54106438" width="21.2666884" height="64.4164911"></rect>
                        <ellipse id="Oval-1" stroke="#4A4A4A" stroke-width="5" cx="33.1328842" cy="33.1328842" rx="33.1328842" ry="33.1328842"></ellipse>
                    </g>
                    <path d="M65.8664708,33.4167352 C65.8664708,33.4167352 76.7042602,30.6633099 82.4329128,30.6633099 C87.7485549,30.6633099 98.9993549,33.4167352 98.9993549,33.4167352 L98.9993549,39.38249 C98.9993549,39.38249 88.1569637,36.1701605 82.4329128,36.1701605 C77.112669,36.1701605 65.8664708,39.38249 65.8664708,39.38249 L65.8664708,33.4167352 Z" id="Rectangle-3" fill="#4A4A4A"></path>
                </g>
                <circle id="Oval-15" fill="#EE8822" sketch:type="MSShapeGroup" cx="32.5" cy="174.5" r="5.5"></circle>
                <circle id="Oval-15-Copy" fill="#EE8822" sketch:type="MSShapeGroup" cx="227.5" cy="177.5" r="5.5"></circle>
            </g>
        </g>
    </g>
</svg>